<svg xmlns="http://www.w3.org/2000/svg" viewBox="0 0 449.13 459.55"><defs><style>.cls-1{fill:#f0c8b2;}.cls-2{fill:#bdc892;}.cls-3{fill:#473220;}.cls-4{fill:#e69560;}.cls-5{fill:#8da6bc;}.cls-6{fill:#ecb896;}.cls-7{fill:#e27f46;}.cls-8{fill:#b23f21;}.cls-9{fill:#f5ded0;}.cls-10{fill:#d5826d;}.cls-11{fill:#d1684a;}.cls-12{fill:#ac5f43;}.cls-13{fill:#758b9b;}</style></defs><g id="OBJECTS"><path class="cls-1" d="M459.86,204.41c-.85,75.43-59.93,149.55-138.11,152-64.93,6-87.66-41-140.31-56.75-35.82-7.38-78.07,7.44-108.48-18.47-39.43-37.45-32.41-120.19-7-164,23.29-37.36,71.12-49,112.61-44.74C212,74,237.06,65.33,266,49.51,373.72-20.19,462.82,102.67,459.86,204.41Z" transform="translate(-18.33 -26.83)"/><path class="cls-2" d="M415.64,444.81a40.66,40.66,0,0,1-9.08,5.46h-343a76.05,76.05,0,0,1-25.78-35c-2.61-7.25-4.06-15.82-.37-22.51,4-7.23,12.94-9.88,20.68-8.49s14.61,6,21.24,10.5a147.62,147.62,0,0,1-13.84-57.23c-.23-6.26.12-13.11,4-17.87,5.57-6.93,16.4-6.15,23.35-.82s10.94,13.89,14.67,22.1a80.68,80.68,0,0,1,8-41c2.35-4.74,5.48-9.49,10.19-11.36,8.73-3.45,17.93,4.7,21.88,13.68s5.08,19.34,10.25,27.58c2.15-10.33,14.48-15.59,23.8-11.94s15.28,13.84,17.2,24.23.46,21.09-1,31.56c5.81-6.75,16.85-7.25,23.17-1.06s6.79,18,1,24.7c9.16-8.78,25.46-6.71,32.42,4.13-.57-7.61-1.13-15.37.48-22.81s5.76-14.65,12.29-17.8,15.43-.95,18.64,5.87c-1.55-8.64-3.1-17.6-1.23-26.18S292.73,323.77,301,323c6.29-.61,12.38,3.16,16.47,8.28s6.54,11.46,8.93,17.68c1.29-9,2.71-18.39,7.64-25.84s14.51-12.25,22.27-8.43c10.34,5.11,10.81,20.33,9.7,32.41,1.45-7.3,3.74-15.71,10.25-18.47,8.17-3.47,17.16,5.46,18,14.79s-3.62,18.16-8,26.31c4.57-7.39,15.13-8.9,22.11-4.11s10.19,14.46,9,23.21S411.09,405.32,404.7,411c7-5.7,18.38.23,20.63,9.34S422.66,439.12,415.64,444.81Z" transform="translate(-18.33 -26.83)"/><path class="cls-1" d="M60.23,450.07H418.81s-36.16,36.31-179.29,36.31S60.23,450.07,60.23,450.07Z" transform="translate(-18.33 -26.83)"/><path class="cls-3" d="M89.21,205.3a6.33,6.33,0,0,1-2.54,5.53c-.64.43-3.68.74-5.7,2.38s-2.92,4.56-3.46,5.1a6.3,6.3,0,0,1-5.93,1.38c-2.82-.95-5.52-2.95-4.17-7.17s.85-4.82-.27-8.61a5,5,0,0,1,7.49-6.12c3.5,1.86,4,2.48,8.38,2S88.83,202.35,89.21,205.3Z" transform="translate(-18.33 -26.83)"/><path class="cls-3" d="M62.93,205.18c2.92,1.4,3.8,3.76,2.87,5.69s-3.31,2.72-6.23,1.32-4.53-4.11-3.6-6S60,203.78,62.93,205.18Z" transform="translate(-18.33 -26.83)"/><path class="cls-3" d="M63.09,193.19c3,2.13,3.53,4.94,2.11,6.93s-4.24,2.41-7.24.27-4.28-5.47-2.87-7.46S60.08,191.06,63.09,193.19Z" transform="translate(-18.33 -26.83)"/><path class="cls-3" d="M76.39,194.19c.79,3.14,2.92,4.48,5,3.95s3.32-2.7,2.53-5.84-3.11-5.26-5.2-4.74S75.6,191.05,76.39,194.19Z" transform="translate(-18.33 -26.83)"/><path class="cls-3" d="M64.61,191.94c1.49,3.37,4.14,4.45,6.37,3.46s3.21-3.67,1.72-7-4.51-5.29-6.74-4.3S63.12,188.57,64.61,191.94Z" transform="translate(-18.33 -26.83)"/><path class="cls-3" d="M80.29,162.87a5.27,5.27,0,0,1-5.07-.32c-.52-.37-1.67-2.65-3.55-3.73s-4.42-.91-5-1.17a5.28,5.28,0,0,1-2.85-4.21c-.09-2.48.65-5.18,4.35-5.38s4-.78,6.63-2.79a4.2,4.2,0,0,1,7,4c-.4,3.28-.74,3.83,1,7.12S82.48,161.7,80.29,162.87Z" transform="translate(-18.33 -26.83)"/><path class="cls-3" d="M72.53,142.38c-.22,2.69-1.79,4.08-3.57,3.93s-3.11-1.77-2.89-4.46,1.85-4.76,3.63-4.61S72.76,139.68,72.53,142.38Z" transform="translate(-18.33 -26.83)"/><path class="cls-3" d="M81.92,138.91c-.77,3-2.79,4.23-4.76,3.72s-3.15-2.58-2.38-5.56,3-5,5-4.46S82.69,135.94,81.92,138.91Z" transform="translate(-18.33 -26.83)"/><path class="cls-3" d="M85.11,149.58c-2.21,1.55-2.61,3.61-1.58,5.07s3.1,1.79,5.31.24,3.17-4,2.14-5.47S87.32,148,85.11,149.58Z" transform="translate(-18.33 -26.83)"/><path class="cls-3" d="M83.35,139.73c-2.18,2.17-2.23,4.55-.8,6s3.82,1.4,6-.76,2.78-5.09,1.34-6.54S85.53,137.56,83.35,139.73Z" transform="translate(-18.33 -26.83)"/><path class="cls-3" d="M43.83,138.88a4.85,4.85,0,0,1-2.61,3.85c-.54.23-2.87.08-4.59,1.07s-2.77,3-3.25,3.4a4.83,4.83,0,0,1-4.64.28c-2-1.07-3.78-2.91-2.22-5.92s1.25-3.51.88-6.51a4.19,4.19,0,0,1,1.84-4.22,4.19,4.19,0,0,1,4.57.57c2.39,1.84,2.67,2.36,6,2.55S43.92,136.62,43.83,138.88Z" transform="translate(-18.33 -26.83)"/><path class="cls-3" d="M24.08,135.48c2,1.42,2.38,3.3,1.44,4.64s-2.84,1.63-4.86.2-2.89-3.66-1.95-5S22.06,134.05,24.08,135.48Z" transform="translate(-18.33 -26.83)"/><path class="cls-3" d="M25.71,126.47c2,2,2,4.17.71,5.48s-3.49,1.28-5.48-.7-2.53-4.67-1.22-6S23.72,124.49,25.71,126.47Z" transform="translate(-18.33 -26.83)"/><path class="cls-3" d="M35.59,128.91c.2,2.46,1.63,3.73,3.26,3.6s2.85-1.61,2.65-4.07-1.68-4.35-3.31-4.22S35.39,126.45,35.59,128.91Z" transform="translate(-18.33 -26.83)"/><path class="cls-3" d="M27,125.73c.7,2.72,2.55,3.87,4.36,3.41s2.87-2.36,2.18-5.08S30.82,119.5,29,120,26.32,123,27,125.73Z" transform="translate(-18.33 -26.83)"/><path class="cls-4" d="M242.63,168l1.28,9.24A54.76,54.76,0,0,1,270.17,171c1.71,11.41,3.28,22.51,3.28,23.88L247,197.19l-1.32,40c-46.62,5.06-85.89-5.88-103.23-11.93l3.11-10.46L152,172.14l-29-10s8.4-24.32,15.49-33.13,39.67-11.09,39.67-11.09l1.63-7.7a24.63,24.63,0,0,0,2.46,1.07A44.41,44.41,0,0,0,193.53,114a38.45,38.45,0,0,0,4.38.24c1.13,0,2.26,0,3.36-.11A70.73,70.73,0,0,0,214.55,112c1.79-.46,2.85-.82,2.85-.82l1.31,5.16s26.67,7.25,34.52,11.64c7.14,4,10.65,9.07,12.46,16.22a54.6,54.6,0,0,0-25.7,4.9l1.41,10.15Z" transform="translate(-18.33 -26.83)"/><path class="cls-5" d="M270.17,171a54.76,54.76,0,0,0-26.26,6.23L242.63,168a54.82,54.82,0,0,1,26.26-5.36C269.32,165.36,269.75,168.19,270.17,171Z" transform="translate(-18.33 -26.83)"/><path class="cls-6" d="M267.39,153.19c.45,2.75,1,6,1.5,9.45A54.82,54.82,0,0,0,242.63,168l-1.23-8.75A54.76,54.76,0,0,1,267.39,153.19Z" transform="translate(-18.33 -26.83)"/><path class="cls-5" d="M267.39,153.19a54.76,54.76,0,0,0-26,6.06L240,149.1a54.6,54.6,0,0,1,25.7-4.9c.19.72.36,1.47.51,2.24C266.5,147.91,266.9,150.28,267.39,153.19Z" transform="translate(-18.33 -26.83)"/><path class="cls-4" d="M240.68,287.06a131.24,131.24,0,0,1-20.62,4.28c-13.41,1.42-32.95-3.08-32.95-3.08l-.44-10.66-6.26,9.55S162.77,284,149.31,281a42.53,42.53,0,0,1-18.08-8.73,25,25,0,0,1-2.13-2l4-13.33c13.93,5.36,59.64,20.46,114,12.25l1.83,15.36S245.55,285.68,240.68,287.06Z" transform="translate(-18.33 -26.83)"/><path class="cls-5" d="M245.76,258.57,247,269.16c-54.33,8.21-100-6.89-114-12.25l2.88-9.71C152.41,253.19,195.27,265.89,245.76,258.57Z" transform="translate(-18.33 -26.83)"/><path class="cls-6" d="M245.11,253.11l.65,5.46c-50.49,7.32-93.35-5.38-109.83-11.37l3.28-11.07c16.67,6,57.64,17.81,106.08,11.51Z" transform="translate(-18.33 -26.83)"/><path class="cls-5" d="M245.65,237.21l-.36,10.43c-48.44,6.3-89.41-5.55-106.08-11.51l3.21-10.85C159.76,231.33,199,242.27,245.65,237.21Z" transform="translate(-18.33 -26.83)"/><path class="cls-7" d="M240.68,287.06l-5.91,64,.95,35.14c-21.85,3.15-37.19.57-42.09-.48l-8.5-93.09L170.63,354l-.36,24c-19.82,2.8-34.22.89-40.25-.25-.41-14.25-.9-27.11-1.36-31.44-1.21-11.32,2.57-74,2.57-74A42.53,42.53,0,0,0,149.31,281c13.46,3,31.1,6.15,31.1,6.15l6.26-9.55.44,10.66s19.54,4.5,32.95,3.08A131.24,131.24,0,0,0,240.68,287.06Z" transform="translate(-18.33 -26.83)"/><path class="cls-8" d="M233.41,440.68s6.3,20.17,5.38,25.05a24.13,24.13,0,0,1-1,3.71c-13.16,5.56-40.51,0-40.51,0a15.56,15.56,0,0,1-.32-3.15c0-5.39,7.6-22.33,7.6-22.33l-.42-6.19A41.48,41.48,0,0,0,219.4,439a45.11,45.11,0,0,0,14.35-4.69Z" transform="translate(-18.33 -26.83)"/><path class="cls-7" d="M233.75,434.29A45.11,45.11,0,0,1,219.4,439a41.48,41.48,0,0,1-15.26-1.21,48.73,48.73,0,0,1-5.94-1.87l-.89-9.7c7.15,1.13,21.08,2.42,39.49-.37l.18,6.56A32.34,32.34,0,0,1,233.75,434.29Z" transform="translate(-18.33 -26.83)"/><path class="cls-5" d="M236.4,411.19l.4,14.64c-18.41,2.79-32.34,1.5-39.49.37L196,411.26C202.54,412.43,216.93,414.09,236.4,411.19Z" transform="translate(-18.33 -26.83)"/><path class="cls-6" d="M236.13,400.87l.27,10.32c-19.47,2.9-33.86,1.24-40.45.07l-1-10.54C201.05,401.87,215.79,403.85,236.13,400.87Z" transform="translate(-18.33 -26.83)"/><path class="cls-9" d="M237.79,469.44a37.82,37.82,0,0,1-2.74,5.92c-12.52,3.63-35.26,0-35.26,0a15.67,15.67,0,0,1-2.51-5.92S224.63,475,237.79,469.44Z" transform="translate(-18.33 -26.83)"/><path class="cls-5" d="M235.72,386.23l.41,14.64c-20.34,3-35.08,1-41.14-.15l-1.36-15C198.53,386.8,213.87,389.38,235.72,386.23Z" transform="translate(-18.33 -26.83)"/><path class="cls-4" d="M219.6,62.74a18.07,18.07,0,0,0-5.79-2.58,58.9,58.9,0,0,0-15.61-1.69c-7.88,0-13.16.87-16.69,2a14.37,14.37,0,0,0-5.73,3.1A40.21,40.21,0,0,0,176,75.26a5.72,5.72,0,0,0-.89.56,1.52,1.52,0,0,0-.65.55l-.08.09a24,24,0,0,1-5.31-4.63,23.55,23.55,0,0,1-5-10.27c-1.54-7.09,0-7,0-7s2.14,1.51,8.05,1.95c.93.08,1.93.12,3.05.13.82,0,1.59,0,2.35-.07a40,40,0,0,0,4.12-.44c5-.77,9.41-2.13,16.49-2.13s11.54,1.36,16.49,2.13c1,.16,2.09.3,3.2.38a30.94,30.94,0,0,0,3.26.13c1.12,0,2.14,0,3.06-.13,5.91-.44,8-1.95,8-1.95s1.54-.06,0,7A23.3,23.3,0,0,1,227,72.2a24.41,24.41,0,0,1-5.56,4.61c-.13-.15-.28-.29-.42-.44a1.52,1.52,0,0,0-.65-.55,5.28,5.28,0,0,0-.89-.56A40.28,40.28,0,0,0,219.6,62.74Z" transform="translate(-18.33 -26.83)"/><path class="cls-6" d="M227,72.2c.53,3.2,4.38,26.57,2.79,31-1.63,4.56-14.82,5.54-15.81,5.61-.55-3.07-1.28-7.24-1.22-7.32a13.77,13.77,0,0,0,2.4-4.28c.23-.88.43-4.44.62-5.91.65-.26,1.45-.59,1.7-.72a9.13,9.13,0,0,0,1.69-1,10.18,10.18,0,0,0,3.78-6.26,8.22,8.22,0,0,0-.59-5,7,7,0,0,0-.92-1.41A24.41,24.41,0,0,0,227,72.2Z" transform="translate(-18.33 -26.83)"/><path class="cls-7" d="M209.4,33.1c16.32,0,14.81,23.38,14.81,23.38-.92.08-1.94.12-3.06.13a30.94,30.94,0,0,1-3.26-.13c-1.11-.08-2.17-.22-3.2-.38,0,0-.27-2.44-.77-5.75C213,44.37,211.42,35.53,209.4,33.1Z" transform="translate(-18.33 -26.83)"/><path class="cls-10" d="M219.47,75.26a5.28,5.28,0,0,1,.89.56,1.52,1.52,0,0,1,.65.55c.14.15.29.29.42.44a7,7,0,0,1,.92,1.41,8.22,8.22,0,0,1,.59,5,10.18,10.18,0,0,1-3.78,6.26,9.13,9.13,0,0,1-1.69,1c-.25.13-1.05.46-1.7.72-.19,1.47-.39,5-.62,5.91a13.77,13.77,0,0,1-2.4,4.28l0,0a51.07,51.07,0,0,1-9.44,9.2c-2,1.23-5.53,1.33-5.53,1.33s-3.54-.1-5.52-1.33a51.23,51.23,0,0,1-8.89-8.51,15.2,15.2,0,0,1-3-5c-.23-.87-.43-4.41-.61-5.86-.61-.26-1.44-.64-1.7-.77a8.89,8.89,0,0,1-1.7-1,10.23,10.23,0,0,1-3.78-6.26,8.29,8.29,0,0,1,.59-5,6.44,6.44,0,0,1,1.26-1.76l.08-.09a1.52,1.52,0,0,1,.65-.55,5.72,5.72,0,0,1,.89-.56,5.37,5.37,0,0,1,.87-.33,5.06,5.06,0,0,1,1.73-.19h0a57.94,57.94,0,0,1,1.71-11.28,15.73,15.73,0,0,1,1.16-3c3.53-1.15,8.81-2,16.69-2a58.9,58.9,0,0,1,15.61,1.69,14.79,14.79,0,0,1,1.34,3.3,57.94,57.94,0,0,1,1.71,11.28h0a5.29,5.29,0,0,1,2.6.52Z" transform="translate(-18.33 -26.83)"/><path class="cls-3" d="M219.6,62.74a40.28,40.28,0,0,1-.13,12.52,5.29,5.29,0,0,0-2.6-.52h0a57.94,57.94,0,0,0-1.71-11.28,14.79,14.79,0,0,0-1.34-3.3A18.07,18.07,0,0,1,219.6,62.74Z" transform="translate(-18.33 -26.83)"/><path class="cls-4" d="M213.92,50.35c.5,3.31.77,5.75.77,5.75-4.95-.77-9.41-2.13-16.49-2.13s-11.53,1.36-16.49,2.13c0,0,.33-2.93.91-6.73.93-5.93,2.47-14,4.38-16.27,3.13-3.79,11.2-6.27,11.2-6.27s8.08,2.48,11.2,6.27C211.42,35.53,213,44.37,213.92,50.35Z" transform="translate(-18.33 -26.83)"/><path class="cls-10" d="M214,108.76c.32,1.82.58,3.24.58,3.24a70.73,70.73,0,0,1-13.28,2.14c5-.56,11.09-12,11.45-12.67l0,0C212.69,101.52,213.42,105.69,214,108.76Z" transform="translate(-18.33 -26.83)"/><path class="cls-3" d="M203.28,110.67a51.07,51.07,0,0,0,9.44-9.2c-.36.71-6.47,12.11-11.45,12.67-1.1.08-2.23.11-3.36.11a38.45,38.45,0,0,1-4.38-.24c-6.58-2.55-10.21-11.85-10.21-11.85h0a51.23,51.23,0,0,0,8.89,8.51c2,1.23,5.52,1.33,5.52,1.33S201.3,111.9,203.28,110.67Z" transform="translate(-18.33 -26.83)"/><path class="cls-10" d="M183.32,102.16s3.63,9.3,10.21,11.85a44.41,44.41,0,0,1-11.33-2.76l.29-2.44Z" transform="translate(-18.33 -26.83)"/><path class="cls-7" d="M187,33.1c-1.91,2.3-3.45,10.34-4.38,16.27-.58,3.8-.91,6.73-.91,6.73a40,40,0,0,1-4.12.44c-.76.06-1.53.07-2.35.07-1.12,0-2.12,0-3.05-.13C172.19,56.48,170.69,33.1,187,33.1Z" transform="translate(-18.33 -26.83)"/><path class="cls-6" d="M183.34,102.16h0l-.83,6.65-.39,0s-14.16-.88-15.87-5.61,2.87-31.32,2.87-31.32a24,24,0,0,0,5.31,4.63,6.44,6.44,0,0,0-1.26,1.76,8.29,8.29,0,0,0-.59,5,10.23,10.23,0,0,0,3.78,6.26,8.89,8.89,0,0,0,1.7,1c.26.13,1.09.51,1.7.77.18,1.45.38,5,.61,5.86A15.2,15.2,0,0,0,183.34,102.16Z" transform="translate(-18.33 -26.83)"/><path class="cls-3" d="M181.51,60.49a15.73,15.73,0,0,0-1.16,3,57.94,57.94,0,0,0-1.71,11.28h0a5.06,5.06,0,0,0-1.73.19,5.37,5.37,0,0,0-.87.33,40.21,40.21,0,0,1-.25-11.67A14.37,14.37,0,0,1,181.51,60.49Z" transform="translate(-18.33 -26.83)"/><path class="cls-5" d="M170.27,378l-.21,14.74c-19.27,2.69-33.39.93-39.62-.2-.13-4.9-.26-9.93-.42-14.79C136.05,378.84,150.45,380.75,170.27,378Z" transform="translate(-18.33 -26.83)"/><path class="cls-6" d="M170.06,392.69l-.16,10.38c-18.93,2.63-32.87,1-39.2-.16-.08-3.34-.17-6.84-.26-10.42C136.67,393.62,150.79,395.38,170.06,392.69Z" transform="translate(-18.33 -26.83)"/><path class="cls-5" d="M169.9,403.07l-.21,14.74c-18.49,2.53-32.2,1-38.66-.14-.08-4.08-.2-9.17-.33-14.76C137,404,151,405.7,169.9,403.07Z" transform="translate(-18.33 -26.83)"/><path class="cls-7" d="M166.9,430.29c-4.07,1.25-12.13,3.27-18.46,2.1a94.65,94.65,0,0,1-12.81-3.45c-2.69-.91-4.4-1.61-4.4-1.61s-.07-3.76-.2-9.66c6.46,1.12,20.17,2.67,38.66.14l-.17,11.6S168.53,429.79,166.9,430.29Z" transform="translate(-18.33 -26.83)"/><path class="cls-8" d="M166,446.67c.85,5.86,2.46,11.8,1.35,16.44-29.21,9.37-57.59,1.68-58.39,1.45h0c-.3-.54-.6-1.15-.94-1.79-5.78-11.38,11.29-11.18,15.77-12.18S136.64,441,136.64,441l-1-12.08a94.65,94.65,0,0,0,12.81,3.45c6.33,1.17,14.39-.85,18.46-2.1Z" transform="translate(-18.33 -26.83)"/><path class="cls-9" d="M167.37,463.11c-.36,1.51-.76,2.9-1.13,4.09a6.42,6.42,0,0,1-6.13,4.5h-46s-1.83-.95-5.17-7.14C109.78,464.79,138.16,472.48,167.37,463.11Z" transform="translate(-18.33 -26.83)"/><path class="cls-3" d="M192.75,77.49A2.76,2.76,0,1,1,190,74.36,3,3,0,0,1,192.75,77.49Z" transform="translate(-18.33 -26.83)"/><path class="cls-3" d="M209.9,77.49a2.75,2.75,0,1,1-2.73-3.13A3,3,0,0,1,209.9,77.49Z" transform="translate(-18.33 -26.83)"/><path class="cls-3" d="M191.24,67.75a19.65,19.65,0,0,0-6.73,1.8,1.79,1.79,0,0,0,.42,3.28,2,2,0,0,0,1.39-.18l.35-.15a17.18,17.18,0,0,1,4.06-1.1l.51-.06a2,2,0,0,0,1.27-.52,1.85,1.85,0,0,0,.52-1.27A1.82,1.82,0,0,0,191.24,67.75Z" transform="translate(-18.33 -26.83)"/><path class="cls-3" d="M204.26,67.75a19.77,19.77,0,0,1,6.74,1.8,1.8,1.8,0,0,1,.64,2.46,1.8,1.8,0,0,1-1.07.82,2,2,0,0,1-1.39-.18l-.35-.15a17.18,17.18,0,0,0-4.06-1.1l-.51-.06a2,2,0,0,1-1.27-.52,1.85,1.85,0,0,1-.52-1.27A1.82,1.82,0,0,1,204.26,67.75Z" transform="translate(-18.33 -26.83)"/><path class="cls-3" d="M178.1,88.74h0a.75.75,0,0,1-.72-.78c.16-4.26-2.49-8.75-2.52-8.8a.75.75,0,1,1,1.28-.77c.12.2,2.91,4.91,2.73,9.63A.74.74,0,0,1,178.1,88.74Z" transform="translate(-18.33 -26.83)"/><path class="cls-3" d="M217.4,87.8a.76.76,0,0,1-.75-.72c-.18-4.72,2.61-9.43,2.73-9.63a.75.75,0,1,1,1.29.77S218,82.75,218.15,87a.76.76,0,0,1-.72.78Z" transform="translate(-18.33 -26.83)"/><ellipse class="cls-11" cx="169.91" cy="59.75" rx="4" ry="2.35"/><path class="cls-11" d="M213.9,86.58c0,1.3-1.79,2.35-4,2.35s-4-1.05-4-2.35,1.78-2.35,4-2.35S213.9,85.29,213.9,86.58Z" transform="translate(-18.33 -26.83)"/><path class="cls-11" d="M199.29,74.71a11.34,11.34,0,0,0-1.78,5.92c0,3.28.51,10.2.51,10.2s5-.65,5.57-2.84S199.29,74.71,199.29,74.71Z" transform="translate(-18.33 -26.83)"/><path class="cls-3" d="M196.9,92.12a.74.74,0,0,1-.74-.65.75.75,0,0,1,.65-.84,11.74,11.74,0,0,0,5.62-2.33,1.72,1.72,0,0,0,.42-2.15,63.52,63.52,0,0,1-4.6-12.45.75.75,0,1,1,1.45-.37,62.11,62.11,0,0,0,4.5,12.16,3.25,3.25,0,0,1-.85,4A13.24,13.24,0,0,1,197,92.11Z" transform="translate(-18.33 -26.83)"/><path class="cls-3" d="M197.7,97.42a10.31,10.31,0,0,1-4.8-1.17.73.73,0,0,1-.31-1,.75.75,0,0,1,1-.32,8.85,8.85,0,0,0,7.44.35.75.75,0,0,1,.58,1.38A10.22,10.22,0,0,1,197.7,97.42Z" transform="translate(-18.33 -26.83)"/><path class="cls-3" d="M177.59,57.29a.75.75,0,0,1,0-1.5,39.55,39.55,0,0,0,4-.43c1.32-.2,2.58-.45,3.93-.71a56.89,56.89,0,0,1,25.35,0c1.34.26,2.61.51,3.93.71,1,.14,2,.29,3.14.37a.75.75,0,0,1,.69.81.76.76,0,0,1-.8.69c-1.18-.09-2.31-.24-3.26-.39-1.35-.21-2.63-.45-4-.71a55.14,55.14,0,0,0-24.78,0c-1.35.26-2.63.5-4,.71a39.69,39.69,0,0,1-4.21.45Z" transform="translate(-18.33 -26.83)"/><path class="cls-3" d="M172.41,67.76l-.2,0a.74.74,0,0,1-.52-.91c.1-.38,2.78-9.09,25.74-9.09s27.31,8.32,27.49,8.67a.76.76,0,0,1-.33,1,.74.74,0,0,1-1-.33c0-.08-4.37-7.85-26.15-7.85s-24.27,7.91-24.29,8A.76.76,0,0,1,172.41,67.76Z" transform="translate(-18.33 -26.83)"/><path class="cls-3" d="M199.08,128.73a.71.71,0,0,1-.34-.08.74.74,0,0,1-.33-1c.73-1.47,2.63-5.67,2.61-7.5s-2.62-4.43-3.62-5.34a.75.75,0,1,1,1-1.11c.42.38,4.08,3.78,4.11,6.44s-2.48,7.61-2.77,8.18A.75.75,0,0,1,199.08,128.73Z" transform="translate(-18.33 -26.83)"/><path class="cls-3" d="M200,129.45a11.26,11.26,0,0,1-1.91-.15c-9.79-1.62-19.12-9.72-19.51-10.06a.75.75,0,0,1,1-1.13c.09.08,9.4,8.16,18.77,9.71,9.16,1.51,19.45-10.42,19.55-10.54a.76.76,0,0,1,1.06-.08.74.74,0,0,1,.08,1C218.6,118.74,209.37,129.45,200,129.45Z" transform="translate(-18.33 -26.83)"/><path class="cls-3" d="M245.22,186a.75.75,0,0,1-.75-.64l-5.22-36.14a.75.75,0,0,1,.63-.85.76.76,0,0,1,.85.64L246,185.14a.75.75,0,0,1-.64.85Z" transform="translate(-18.33 -26.83)"/><path class="cls-3" d="M241.4,165.07a.74.74,0,0,1-.64-.37l-6.9-11.53a.75.75,0,0,1,1.29-.77L242,163.93a.75.75,0,0,1-.25,1A.79.79,0,0,1,241.4,165.07Z" transform="translate(-18.33 -26.83)"/><path class="cls-3" d="M186.67,278.35h-.06a.75.75,0,0,1-.69-.81l3.37-45.36a.75.75,0,0,1,1.49.11l-3.36,45.37A.75.75,0,0,1,186.67,278.35Z" transform="translate(-18.33 -26.83)"/><path class="cls-3" d="M148.66,356h0a26.56,26.56,0,0,1-18.16-7,.75.75,0,0,1,1.08-1,25.61,25.61,0,0,0,17.09,6.58.75.75,0,1,1,0,1.5Z" transform="translate(-18.33 -26.83)"/><path class="cls-3" d="M209.3,360.87a23.21,23.21,0,0,1-10.25-2.31.75.75,0,0,1-.3-1,.75.75,0,0,1,1-.29A22.1,22.1,0,0,0,221,356a.75.75,0,0,1,.8,1.27A23.27,23.27,0,0,1,209.3,360.87Z" transform="translate(-18.33 -26.83)"/><path class="cls-3" d="M134.65,456.81a.77.77,0,0,1-.6-.3c0-.05-4-5.17-10.19-5.17h-.06a.75.75,0,0,1,0-1.5h.06c7,0,11.21,5.53,11.39,5.77a.75.75,0,0,1-.15,1.05A.74.74,0,0,1,134.65,456.81Z" transform="translate(-18.33 -26.83)"/><path class="cls-3" d="M142.39,445.6a.78.78,0,0,1-.41-.12l-5.76-3.84a.75.75,0,0,1-.2-1,.74.74,0,0,1,1-.2l5.76,3.83a.75.75,0,0,1-.42,1.37Z" transform="translate(-18.33 -26.83)"/><path class="cls-3" d="M202.87,459.44a.74.74,0,0,1-.67-.41.75.75,0,0,1,.33-1c.73-.36,18-8.73,31.88,0a.75.75,0,1,1-.8,1.27c-13.17-8.33-30.24-.05-30.41,0A.78.78,0,0,1,202.87,459.44Z" transform="translate(-18.33 -26.83)"/><path class="cls-1" d="M164.27,112.5a5.77,5.77,0,0,1-2.3,4.06,5.89,5.89,0,0,1-4.66.41,6,6,0,0,0,.21-.77c.13-1.11,2-3.42,2-3.42s2.88-.76,4-.43A4.28,4.28,0,0,0,164.27,112.5Z" transform="translate(-18.33 -26.83)"/><path class="cls-12" d="M170.24,104.39a61.2,61.2,0,0,1,9.5,5.79c5.17,3.8,8.59,19.95,8.59,19.95l-24.87,3.79L156.57,112Z" transform="translate(-18.33 -26.83)"/><path class="cls-12" d="M203.8,131.94s11.94-9.48,17.65-9.07,8.53,6.93,10.26,9.07-1.07,3.92-4.37,7.48-10-2.21-10-2.21l-4.65,13.56S201,141.5,203.8,131.94Z" transform="translate(-18.33 -26.83)"/><path class="cls-12" d="M127.33,102.44l-8.69-1.23s-2.08,5.63-4.16,4.92-4.89-4.67-4.7-8.65,2.37-10.1,6.46-13.15,9.47-.59,9.47-.59c2.44-3.19,9.26-5.95,9.26-5.95l3-1.91s5.33-5,9.25-5.95c0,0,0-5.92,4.49-8.36s10.94-1.9,14.64-.41,6.12,5.71,5.9,7.89-6.2,1.73-6.2,1.73l-2.49,8.42a12.78,12.78,0,0,1,1.1,1.47c2.88,4.48,5.82,6.31,7.87,12.24,1.66,4.8.51,9.84,0,11.57-.49-2.64-2-4.29-3.12-4.66-1.6-.52-9.09-2.11-14.2-5.37s-9-2.38-9-2.38-2.4,3.15-1.56,9.16-.84,13.48-1.05,15.15c-.13,1.18.74,3.23,2.94,4.77-1.8-.28-6.84-1.34-10.5-4.84-4.53-4.32-5-7.76-7.86-12.24A12.71,12.71,0,0,1,127.33,102.44Z" transform="translate(-18.33 -26.83)"/><path class="cls-1" d="M172.49,108.41c-.82,4.23-6.07,4.36-8.22,4.09a4.28,4.28,0,0,1-.78-.15c-1.07-.33-4,.43-4,.43s-1.89,2.31-2,3.42a6,6,0,0,1-.21.77c-.65,2.07-2.95,6.79-7.13,5.76a10.86,10.86,0,0,1-3.61-1.58c-2.2-1.54-3.07-3.59-2.94-4.77.21-1.67,1.88-9.15,1.05-15.15s1.56-9.16,1.56-9.16,3.88-.88,9,2.38,12.6,4.85,14.2,5.37c1.13.37,2.63,2,3.12,4.66A10.67,10.67,0,0,1,172.49,108.41Z" transform="translate(-18.33 -26.83)"/><path class="cls-13" d="M248.93,182.07q-.69,11.27-1.38,22.49a35,35,0,0,1-1.61,10.1c-1.71,4.65-5.29,8.36-9.09,11.51-10.54,8.75-24,14.45-37.69,14-7.26-.26-14.85-2.51-19.67-7.95-3.59-4-5.45-9.61-9.83-12.79-2.67-1.93-6-2.72-9-3.95s-6.14-3.14-7.28-6.22c-1.86-5,2.05-11.37-1.08-15.72-2.5-3.47-7.81-3.2-11.31-5.68-2.51-1.76-3.83-4.82-4.32-7.86a65.74,65.74,0,0,1-.29-9.21c-.13-8.78-2.53-17.35-3.88-26-1.31-8.35-1.55-17.25,1.93-24.91a112.86,112.86,0,0,1,19.4-4.78c7.43-.94,15.2-.48,22,2.59,3.74,1.68,7.17,4.12,11.1,5.3,5.8,1.73,12.61.72,17.39,4.41,3.72,2.85,5.1,7.71,6.61,12.15s3.78,9.21,8.17,10.85c2.27.84,5,.74,6.91,2.2,3.61,2.7,2.49,8.78,5.57,12.07,3.43,3.64,9.91,1.91,13.9,4.91C249.13,172.23,249.2,177.54,248.93,182.07Z" transform="translate(-18.33 -26.83)"/><path class="cls-3" d="M169.62,190.61a9.66,9.66,0,0,1-5.57-1.68,19.82,19.82,0,0,1-1.9-1.6,11.05,11.05,0,0,0-2.7-2,9.53,9.53,0,0,0-5.67-.28l-1.39.28a19.27,19.27,0,0,1-4.94.61c-2.08-.09-4.7-1-5.81-3.34a.75.75,0,1,1,1.35-.64c.83,1.72,3,2.41,4.53,2.48a18.2,18.2,0,0,0,4.56-.57l1.43-.29a10.81,10.81,0,0,1,6.58.39,12.54,12.54,0,0,1,3.08,2.29,18.18,18.18,0,0,0,1.75,1.47A8.67,8.67,0,0,0,176,186.41a.76.76,0,0,1,1.06-.06.75.75,0,0,1,.06,1.06A10,10,0,0,1,169.62,190.61Z" transform="translate(-18.33 -26.83)"/><path class="cls-3" d="M165.14,197.9l-.15,0a6.86,6.86,0,0,1-5.31-6.06.75.75,0,0,1,.69-.81.74.74,0,0,1,.8.69,5.43,5.43,0,0,0,4.13,4.72.75.75,0,0,1-.16,1.48Z" transform="translate(-18.33 -26.83)"/><path class="cls-3" d="M229.78,184.19a.74.74,0,0,1-.42-.13.75.75,0,0,1-.2-1,10.72,10.72,0,0,0-1.22-13.39.75.75,0,0,1,1.08-1,12.21,12.21,0,0,1,1.39,15.27A.78.78,0,0,1,229.78,184.19Z" transform="translate(-18.33 -26.83)"/><path class="cls-3" d="M225.25,184.54a.77.77,0,0,1-.65-.37.75.75,0,0,1,.27-1,3.53,3.53,0,0,0,1.27-4.42.75.75,0,1,1,1.34-.68,5,5,0,0,1-1.86,6.39A.72.72,0,0,1,225.25,184.54Z" transform="translate(-18.33 -26.83)"/><path class="cls-3" d="M155,97.67c2.55.64,4,5.09,0,7.65s-7.85-.34-7.36-2.92A6.18,6.18,0,0,1,155,97.67Z" transform="translate(-18.33 -26.83)"/><path class="cls-3" d="M230.34,135.09a.75.75,0,0,1-.72-.57,6.49,6.49,0,0,0-2.88-3.9.75.75,0,0,1,.78-1.28,8,8,0,0,1,3.55,4.81.75.75,0,0,1-.54.91A.58.58,0,0,1,230.34,135.09Z" transform="translate(-18.33 -26.83)"/><path class="cls-3" d="M227.07,138.22a.76.76,0,0,1-.7-.47,9,9,0,0,0-2.91-3.77.75.75,0,0,1-.16-1,.76.76,0,0,1,1-.15,10.52,10.52,0,0,1,3.41,4.4.74.74,0,0,1-.41,1A.71.71,0,0,1,227.07,138.22Z" transform="translate(-18.33 -26.83)"/><path class="cls-3" d="M118.36,101.69a.74.74,0,0,1-.25,0,.76.76,0,0,1-.46-1,15.38,15.38,0,0,0,.38-6.22,15.87,15.87,0,0,1,.53-6.84c.84-2.22,3.07-4.35,5.7-4.14a.75.75,0,0,1,.69.8.76.76,0,0,1-.81.69c-1.91-.14-3.54,1.49-4.18,3.18a14.65,14.65,0,0,0-.44,6.2,16.49,16.49,0,0,1-.45,6.84A.76.76,0,0,1,118.36,101.69Z" transform="translate(-18.33 -26.83)"/><path class="cls-3" d="M165.45,71.42a.8.8,0,0,1-.3-.06A9.24,9.24,0,0,1,162,68.61,14.29,14.29,0,0,0,160.42,67a6.6,6.6,0,0,0-10.68,3.3.76.76,0,0,1-.92.53.75.75,0,0,1-.53-.92,8.1,8.1,0,0,1,13.11-4,16.07,16.07,0,0,1,1.7,1.81A8,8,0,0,0,165.76,70a.75.75,0,0,1-.31,1.43Z" transform="translate(-18.33 -26.83)"/><path class="cls-3" d="M163.44,79.68a.74.74,0,0,1-.58-.27,16.09,16.09,0,0,0-9.11-5.54.77.77,0,0,1-.58-.89.75.75,0,0,1,.89-.58,17.69,17.69,0,0,1,10,6.06.75.75,0,0,1-.11,1.05A.7.7,0,0,1,163.44,79.68Z" transform="translate(-18.33 -26.83)"/><path class="cls-3" d="M127.17,102.61a.77.77,0,0,1-.64-.35,15.65,15.65,0,0,1-1.71-12.74.75.75,0,1,1,1.43.44,14.14,14.14,0,0,0,1.55,11.5.74.74,0,0,1-.23,1A.77.77,0,0,1,127.17,102.61Z" transform="translate(-18.33 -26.83)"/><path class="cls-3" d="M141,100.19c1,1.68.76,3.61-.46,4.31s-3-.08-4-1.75-.76-3.61.46-4.31S140,98.52,141,100.19Z" transform="translate(-18.33 -26.83)"/><path class="cls-3" d="M159.7,88.86c1,1.67.76,3.6-.46,4.31s-3-.08-4-1.76-.76-3.6.46-4.31S158.74,87.18,159.7,88.86Z" transform="translate(-18.33 -26.83)"/><path class="cls-7" d="M273.45,194.89s1.1,8.28-4.07,14.83a16,16,0,0,1-4.43,3.4c-1.61-3-3.74-8.72-.95-14.39a11.82,11.82,0,0,1,8.62-6.89C273.17,193.6,273.45,194.89,273.45,194.89Z" transform="translate(-18.33 -26.83)"/><path class="cls-4" d="M267.39,182.91c2.52,1.52,4.28,5.92,5.23,8.93a11.82,11.82,0,0,0-8.62,6.89c-2.79,5.67-.66,11.38.95,14.39-5.54,3.23-14.52,6.57-21.49,8.93a136.5,136.5,0,0,1-7-14.09c-2.17-5.19-1.67-10.84-.76-14.92,5.9-4.29,12.39-8.71,15.11-9.58C256.42,181.67,267.39,182.91,267.39,182.91Z" transform="translate(-18.33 -26.83)"/><path class="cls-5" d="M236.46,208a136.5,136.5,0,0,0,7,14.09c-2.58.87-4.88,1.61-6.63,2.17a135.5,135.5,0,0,1-8-15.69,21.64,21.64,0,0,1-1.51-9.28c2.18-1.66,5.18-3.92,8.33-6.21C234.79,197.12,234.29,202.77,236.46,208Z" transform="translate(-18.33 -26.83)"/><path class="cls-8" d="M226.46,214.1a42.64,42.64,0,0,0,4.79,8.42c-4.5,1.23-22.13,5.94-26.41,5.7-4.91-.27-13.06,0-13.73-1.31s.55-2.86.55-2.86-7.72.19-8.4-1.81a2.36,2.36,0,0,1,.61-2.86s-2.06-1.27-2.21-3.13,1.82-2.92,1.82-2.92a5.33,5.33,0,0,1-1.26-4.33c.21-1.07,18.34-2.45,18.34-2.45s4.32.86,5.38-2.12-4.55-6.47-6.48-9.6-.9-7.14.5-6.49,24.2,16.09,24.2,16.09h0A42.28,42.28,0,0,0,226.46,214.1Z" transform="translate(-18.33 -26.83)"/><path class="cls-4" d="M228.88,208.53a135.5,135.5,0,0,0,8,15.69c-2.17.67-3.51,1.06-3.51,1.06s-.89-1.09-2.07-2.76a42.64,42.64,0,0,1-4.79-8.42,42.28,42.28,0,0,1-2.28-9.67c-.21-1.52-.28-2.51-.28-2.51s1.35-1.06,3.47-2.67A21.64,21.64,0,0,0,228.88,208.53Z" transform="translate(-18.33 -26.83)"/><path class="cls-8" d="M189.9,135.84a1,1,0,0,1,.51-.64,12.18,12.18,0,0,1,7.45-.93c-4.93-4-12.61-9.71-17.65-11-7.91-2.09-30.28,1.16-30.28,1.16,2.32,2.5,7.59,8.45,8.57,12.15.36,1.33.65,2.82.91,4.3,0,0,6.52,4.16,10.41,4.93a58.6,58.6,0,0,0,8.29.88s7.48,8.74,9.77,9.36,5.51.17,5.86-.74a1.51,1.51,0,0,0,0-1.42s3.09-.39,3.3-1.6,0-1.59,0-1.59,3,.58,3.58-.66-11.93-14.4-11.93-14.4Z" transform="translate(-18.33 -26.83)"/><path class="cls-5" d="M154.14,136.34a134.84,134.84,0,0,1,3.35,14.84c-1.56,1.46-3.67,3.39-6,5.46a137.62,137.62,0,0,0-3.55-15.95c-1.69-5.76-6.08-10-9.47-12.55,3-1.42,5.51-2.62,7.34-3.47C149,127.27,152.62,131.2,154.14,136.34Z" transform="translate(-18.33 -26.83)"/><path class="cls-4" d="M147.9,140.69a137.62,137.62,0,0,1,3.55,15.95c-6.46,5.68-14.94,12.5-20,14.18A47.92,47.92,0,0,1,121,173.1a22.32,22.32,0,0,0-1.71-14.38c-3.16-7.09-10.13-6.43-14-5.41a46.13,46.13,0,0,1,19.58-18.66c4.86-2.36,9.61-4.62,13.59-6.51C141.82,130.68,146.21,134.93,147.9,140.69Z" transform="translate(-18.33 -26.83)"/><path class="cls-4" d="M149.93,124.4c2.32,2.5,7.59,8.45,8.57,12.15.36,1.33.65,2.82.91,4.3.67,3.86,1,7.57,1,7.57s-1.11,1.08-2.91,2.76a134.84,134.84,0,0,0-3.35-14.84c-1.52-5.14-5.18-9.07-8.37-11.67l3.06-1.43Z" transform="translate(-18.33 -26.83)"/><path class="cls-7" d="M119.25,158.72A22.32,22.32,0,0,1,121,173.1c-4.39.4-7.79-.08-9.22-1.28-2.43-2.06-10-10.75-7.9-15.66.35-.81.83-1.78,1.42-2.85C109.12,152.29,116.09,151.63,119.25,158.72Z" transform="translate(-18.33 -26.83)"/><path class="cls-3" d="M138,168.05a.75.75,0,0,1-.48-1.32l22.14-18.66c0-1.55-.38-8-2.58-13.1s-7-9.62-8.38-10.85l-12,5.27a.75.75,0,0,1-.6-1.37l12.48-5.47a.74.74,0,0,1,.79.12c.26.23,6.47,5.64,9.11,11.7s2.71,13.72,2.72,14a.76.76,0,0,1-.27.58l-22.41,18.89A.83.83,0,0,1,138,168.05Z" transform="translate(-18.33 -26.83)"/><path class="cls-3" d="M193.74,154.61a.76.76,0,0,1-.56-.26l-10.42-11.92a.75.75,0,0,1,1.13-1l10.42,11.92a.76.76,0,0,1-.07,1.06A.73.73,0,0,1,193.74,154.61Z" transform="translate(-18.33 -26.83)"/><path class="cls-3" d="M197,151.42a.74.74,0,0,1-.57-.27L186.2,139a.74.74,0,0,1,.09-1,.75.75,0,0,1,1.06.09l10.26,12.13a.75.75,0,0,1-.09,1.06A.74.74,0,0,1,197,151.42Z" transform="translate(-18.33 -26.83)"/><path class="cls-3" d="M233.32,226a.71.71,0,0,1-.6-.3c-.09-.11-2.13-2.86-6-9.26-4-6.56-3.56-14.27-3.54-14.6a.72.72,0,0,1,.31-.56c.95-.68,23.34-16.69,27-18.52s16.44-.67,17-.62a.75.75,0,0,1,.67.82.73.73,0,0,1-.82.67c-3.53-.35-13.32-.94-16.16.47-3.35,1.67-23.77,16.23-26.51,18.18,0,1.56.07,8,3.34,13.38,3,4.92,4.91,7.7,5.62,8.71l17.76-6a.75.75,0,1,1,.47,1.42L233.55,226A.59.59,0,0,1,233.32,226Z" transform="translate(-18.33 -26.83)"/><path class="cls-3" d="M192.32,215.25a46.66,46.66,0,0,1-9-1.19.73.73,0,0,1-.56-.9.75.75,0,0,1,.9-.56c.06,0,6.28,1.46,10,1.09s8.73-1.3,8.78-1.31a.74.74,0,0,1,.87.6.75.75,0,0,1-.59.88s-5,.94-8.91,1.32A14.51,14.51,0,0,1,192.32,215.25Z" transform="translate(-18.33 -26.83)"/><path class="cls-3" d="M193.09,220.74c-3.58,0-9.06-.59-9.3-.61a.75.75,0,1,1,.16-1.5c.06,0,6.11.67,9.57.6s10.34-2,10.41-2a.74.74,0,0,1,.92.52.74.74,0,0,1-.52.92c-.29.09-7.19,2-10.79,2.06Z" transform="translate(-18.33 -26.83)"/><path class="cls-3" d="M192.16,225a.75.75,0,0,1,0-1.5c.07,0,6.9-.37,10.34-1a.76.76,0,0,1,.87.6.75.75,0,0,1-.61.87c-3.53.64-10.24,1-10.52,1Z" transform="translate(-18.33 -26.83)"/><path class="cls-3" d="M206.17,139.86a.75.75,0,0,1-.59-.29,12.48,12.48,0,0,0-16-3,.75.75,0,0,1-1-.27.74.74,0,0,1,.27-1,13.94,13.94,0,0,1,18,3.33.74.74,0,0,1-.12,1.05A.75.75,0,0,1,206.17,139.86Z" transform="translate(-18.33 -26.83)"/><path class="cls-8" d="M380.22,447.66c4,.91,19.37.72,14.16,11-.29.59-.56,1.12-.83,1.62h0c-.71.2-26.23,7.11-52.5-1.32-1-4.16.45-9.51,1.22-14.77l-1-18.57c3.05.95,10.17,3,15.64,3.08a34.86,34.86,0,0,0,12.88-2.83l-1.1,13.23S376.2,446.75,380.22,447.66Z" transform="translate(-18.33 -26.83)"/><path class="cls-4" d="M303.71,146a61,61,0,0,0-26.23.41A66.69,66.69,0,0,1,280,133.59c4.06-12.42,33.6-14.06,33.6-14.06l.68-1.82,2-5.27s.84.52,2.25,1.29a57.34,57.34,0,0,0,13.84,5.52,12.16,12.16,0,0,0,1.23.24,4.88,4.88,0,0,0,.75.12,39.35,39.35,0,0,0,12.47-.62h0c2.14-.41,3.51-.83,3.51-.83s.35,1.12.72,2.27.82,2.51.82,2.4,19.33,1.78,22.79,4,13.23,12.2,16.09,30.76L371.4,169.84s7.35,29.77,11.85,51.19a205.78,205.78,0,0,1,3.1,25.79c-44.5,7.94-83,.64-100.57-3.88l3-19.05-.88-11.65L280,196.86a149.42,149.42,0,0,1-3-21.77,63,63,0,0,1,27.4-2.22l-.23-8.38-.25-9.55Z" transform="translate(-18.33 -26.83)"/><path class="cls-9" d="M393.54,460.24c-3,5.56-4.64,6.41-4.64,6.41H347.56a5.76,5.76,0,0,1-5.5-4c-.34-1.07-.7-2.32-1-3.68C367.31,467.35,392.83,460.44,393.54,460.24Z" transform="translate(-18.33 -26.83)"/><path class="cls-4" d="M379.51,292.6a76.69,76.69,0,0,1-18.89,3.79c-15.92,1.09-25.47-2-25.47-2l-3.3-9.22.06-1.59a226.73,226.73,0,0,0,55.82-4.35c.12,6,.13,9.88.13,9.88A56.73,56.73,0,0,1,379.51,292.6Z" transform="translate(-18.33 -26.83)"/><path class="cls-5" d="M387.45,268.38c.13,4,.22,7.74.28,10.87a226.73,226.73,0,0,1-55.82,4.35,233.21,233.21,0,0,1-51.29-7.9l1.59-10.07C299.68,270.21,340.66,278.25,387.45,268.38Z" transform="translate(-18.33 -26.83)"/><path class="cls-6" d="M387,257.29c.19,3.84.34,7.59.46,11.09-46.79,9.87-87.77,1.83-105.24-2.75l1.8-11.47C301.33,258.69,341.23,266.46,387,257.29Z" transform="translate(-18.33 -26.83)"/><path class="cls-5" d="M386.35,246.82c.25,3.5.46,7,.64,10.47-45.76,9.17-85.66,1.4-103-3.13l1.77-11.22C303.36,247.46,341.85,254.76,386.35,246.82Z" transform="translate(-18.33 -26.83)"/><path class="cls-7" d="M379.51,292.6l-4.92,80.46a139,139,0,0,1-38.21,4.6l-5.86-82.37-13.83,65L314,380.46c-19.44.61-33-2.7-38.31-4.29l6.85-85.89c18,9.18,42.53,4.79,42.53,4.79l6.82-9.88,3.3,9.22s9.55,3.07,25.47,2A76.69,76.69,0,0,0,379.51,292.6Z" transform="translate(-18.33 -26.83)"/><path class="cls-5" d="M374.59,373.06l-.94,15.16a136.75,136.75,0,0,1-36.23,4.08l-1-14.64A139,139,0,0,0,374.59,373.06Z" transform="translate(-18.33 -26.83)"/><path class="cls-6" d="M373.65,388.22,373,398.91a136,136,0,0,1-34.84,3.72l-.74-10.33A136.75,136.75,0,0,0,373.65,388.22Z" transform="translate(-18.33 -26.83)"/><path class="cls-5" d="M373,398.91l-.93,15.1a134.64,134.64,0,0,1-32.87,3.29l-1-14.67A136,136,0,0,0,373,398.91Z" transform="translate(-18.33 -26.83)"/><path class="cls-7" d="M341.25,425.58c-.94-.28-1.49-.47-1.49-.47l-.56-7.81A134.64,134.64,0,0,0,372.07,414l-.67,11.1s-.61.3-1.63.72a34.86,34.86,0,0,1-12.88,2.83C351.42,428.56,344.3,426.53,341.25,425.58Z" transform="translate(-18.33 -26.83)"/><path class="cls-4" d="M317.61,72.17a37.9,37.9,0,0,0-1,9.09,6.07,6.07,0,0,0-1.95,1.43c-.34-.28-.66-.58-.95-.87a21.68,21.68,0,0,1-6.36-13c-.89-6.77.56-6.6.56-6.6s1.88,1.6,7.39,2.48q1.29.22,2.85.36c.64.06,1.27.1,1.88.12.92,0,1.81,0,2.66,0,.54,0,1.06,0,1.58-.08,4.71-.32,9-1.25,15.64-.69s10.71,2.19,15.3,3.31l1.38.31c.84.17,1.69.33,2.6.45.67.09,1.34.16,2.06.22,1,.09,2,.12,2.88.13,5.58.05,7.7-1.21,7.7-1.21s1.45.07-.56,6.61a21.59,21.59,0,0,1-10,12.74,5.53,5.53,0,0,0-1.13-1.28,42.48,42.48,0,0,0,.47-10,9.23,9.23,0,0,0-2.37-2.21,20.39,20.39,0,0,0-4.41-2.14h0a56.43,56.43,0,0,0-14.23-2.72,59.53,59.53,0,0,0-13.63.16h0a20.45,20.45,0,0,0-5.74,1.61A8.51,8.51,0,0,0,317.61,72.17Z" transform="translate(-18.33 -26.83)"/><path class="cls-7" d="M352.12,45.71c15.31,1.29,12.05,23.11,12.05,23.11-.87,0-1.83,0-2.88-.13-.72-.06-1.39-.13-2.06-.22-.91-.12-1.76-.28-2.6-.45l-1.38-.31s0-.87-.09-2.27h0c-.05-1.2-.13-2.77-.26-4.54h0C354.49,55.3,353.69,48,352.12,45.71Z" transform="translate(-18.33 -26.83)"/><path class="cls-10" d="M360.14,85.68A5.53,5.53,0,0,1,361.27,87a6,6,0,0,1,.73,1.36,8.16,8.16,0,0,1,.1,5,9.59,9.59,0,0,1-1.67,3.35A10.07,10.07,0,0,1,357.84,99a9,9,0,0,1-1.76.87,10.74,10.74,0,0,1-1.22.38l-1.36,3.59a24,24,0,0,1-7.08,8.36,26.26,26.26,0,0,1-7.27,4.07,9.67,9.67,0,0,1-8.11-.77,28.42,28.42,0,0,1-9.8-10.19,17.79,17.79,0,0,1-1.94-4.73l-.66-3.78a9.32,9.32,0,0,1-1.12-.61A8.83,8.83,0,0,1,316,95.05a10,10,0,0,1-3.1-6.46,8.09,8.09,0,0,1,1-4.84,6.41,6.41,0,0,1,.8-1.06,6.07,6.07,0,0,1,1.95-1.43,5.34,5.34,0,0,1,1.21-.39,5.46,5.46,0,0,1,1.71,0s1.2-10.48,6.38-12h0a59.53,59.53,0,0,1,13.63-.16,56.43,56.43,0,0,1,14.23,2.72h0A23.59,23.59,0,0,1,357,83.23c0,.74,0,1.18,0,1.18a5.18,5.18,0,0,1,1.67.35A5.61,5.61,0,0,1,360.14,85.68Z" transform="translate(-18.33 -26.83)"/><path class="cls-3" d="M360.61,75.7a42.48,42.48,0,0,1-.47,10,5.61,5.61,0,0,0-1.51-.92,5.18,5.18,0,0,0-1.67-.35s0-.44,0-1.18a23.59,23.59,0,0,0-3.15-11.88,20.39,20.39,0,0,1,4.41,2.14A9.23,9.23,0,0,1,360.61,75.7Z" transform="translate(-18.33 -26.83)"/><path class="cls-6" d="M360.43,96.63l.25.21s-1.32,17.57-3.54,20.9a6.43,6.43,0,0,1-6.12,2.68c-.37-1.15-.72-2.27-.72-2.27s-1.37.42-3.51.83l-.37-6.74a24,24,0,0,0,7.08-8.36l1.36-3.59a10.74,10.74,0,0,0,1.22-.38,9,9,0,0,0,1.76-.87A10.07,10.07,0,0,0,360.43,96.63Z" transform="translate(-18.33 -26.83)"/><path class="cls-4" d="M355.16,65.44c.07,1.4.09,2.27.09,2.27-4.59-1.12-8.66-2.74-15.3-3.31s-10.93.37-15.64.69c0-.14.21-1,.51-2.42.27-1.22.63-2.82,1.07-4.58,1.32-5.39,3.32-12.24,5.2-14.16,3.24-3.31,11-5,11-5s7.39,3,10,6.77c1.57,2.26,2.37,9.59,2.78,15.17h0c.13,1.77.21,3.34.26,4.54Z" transform="translate(-18.33 -26.83)"/><path class="cls-10" d="M346.42,112.24l.37,6.74h0a39.35,39.35,0,0,1-12.47.62C341.4,120.15,346.42,112.24,346.42,112.24Z" transform="translate(-18.33 -26.83)"/><path class="cls-3" d="M339.15,116.31a26.26,26.26,0,0,0,7.27-4.07s-5,7.91-12.1,7.37a4.88,4.88,0,0,1-.75-.12c-6.76-1.39-12.33-14.14-12.33-14.14a28.42,28.42,0,0,0,9.8,10.19A9.67,9.67,0,0,0,339.15,116.31Z" transform="translate(-18.33 -26.83)"/><path class="cls-10" d="M333.57,119.49a12.16,12.16,0,0,1-1.23-.24,57.34,57.34,0,0,1-13.84-5.52l.14-.25,2.6-8.13S326.81,118.1,333.57,119.49Z" transform="translate(-18.33 -26.83)"/><path class="cls-4" d="M282.5,290.28a38.51,38.51,0,0,1-3.82-2.24l1.94-12.34a233.21,233.21,0,0,0,51.29,7.9l-.06,1.59L325,295.07S300.5,299.46,282.5,290.28Z" transform="translate(-18.33 -26.83)"/><path class="cls-7" d="M315.34,64.7c0-.64.66-22,15.75-20.77-1.88,1.92-3.88,8.77-5.2,14.16-.44,1.76-.8,3.36-1.07,4.58-.3,1.38-.47,2.28-.51,2.42-.52,0-1,.07-1.58.08-.85,0-1.74,0-2.66,0-.61,0-1.24-.06-1.88-.12Q316.63,64.93,315.34,64.7Z" transform="translate(-18.33 -26.83)"/><path class="cls-3" d="M321.24,105.35l-2.6,8.13-.14.25c-1.41-.77-2.25-1.29-2.25-1.29s-7.23-2.34-6.49-9.5S316,95.05,316,95.05a8.83,8.83,0,0,0,1.57,1.18,9.32,9.32,0,0,0,1.12.61l.66,3.78A17.79,17.79,0,0,0,321.24,105.35Z" transform="translate(-18.33 -26.83)"/><path class="cls-3" d="M326,68.79c-5.18,1.57-6.38,12-6.38,12a5.46,5.46,0,0,0-1.71,0,5.34,5.34,0,0,0-1.21.39,37.9,37.9,0,0,1,1-9.09,8.51,8.51,0,0,1,2.6-1.77A20.45,20.45,0,0,1,326,68.79Z" transform="translate(-18.33 -26.83)"/><path class="cls-6" d="M316.25,112.44l-2,5.27s-16.3.63-14.4-4.64,13.87-31.25,13.87-31.25c.29.29.61.59.95.87a6.41,6.41,0,0,0-.8,1.06,8.09,8.09,0,0,0-1,4.84,10,10,0,0,0,3.1,6.46s-5.44.72-6.19,7.89S316.25,112.44,316.25,112.44Z" transform="translate(-18.33 -26.83)"/><path class="cls-5" d="M314,380.46l-2,14.65c-18.87.52-32.13-2.66-37.5-4.25l1.18-14.69C280.94,377.76,294.52,381.07,314,380.46Z" transform="translate(-18.33 -26.83)"/><path class="cls-6" d="M312,395.11l-1.4,10.33c-18.47.45-31.49-2.62-36.92-4.21l.82-10.37C279.84,392.45,293.1,395.63,312,395.11Z" transform="translate(-18.33 -26.83)"/><path class="cls-8" d="M310.76,460a13.88,13.88,0,0,1-.3,2.83s-24.58,5-36.42,0a25.19,25.19,0,0,1-.91-3.34c-.8-4.37,4.85-22.52,4.85-22.52l-.45-8.09.18-.27a26.44,26.44,0,0,0,11.07,4A29.17,29.17,0,0,0,304.59,430l-.67,9.89S310.76,455.12,310.76,460Z" transform="translate(-18.33 -26.83)"/><path class="cls-5" d="M310.57,405.44l-2,14.66c-17.91.36-30.61-2.58-36.1-4.18l1.17-14.69C279.08,402.82,292.1,405.89,310.57,405.44Z" transform="translate(-18.33 -26.83)"/><path class="cls-9" d="M310.46,462.79a13.89,13.89,0,0,1-2.26,5.33s-20.44,3.26-31.7,0a33.17,33.17,0,0,1-2.46-5.33C285.88,467.79,310.46,462.79,310.46,462.79Z" transform="translate(-18.33 -26.83)"/><path class="cls-7" d="M304.59,430a29.17,29.17,0,0,1-15.81,2.61,26.44,26.44,0,0,1-11.07-4,25.86,25.86,0,0,1-5.85-5l.62-7.67c5.49,1.6,18.19,4.54,36.1,4.18l-1.13,8.33A21.39,21.39,0,0,1,304.59,430Z" transform="translate(-18.33 -26.83)"/><path class="cls-5" d="M304.18,164.49l.23,8.38a63,63,0,0,0-27.4,2.22c-.21-3.11-.33-6.2-.38-9.23A61.88,61.88,0,0,1,304.18,164.49Z" transform="translate(-18.33 -26.83)"/><path class="cls-6" d="M303.93,154.94l.25,9.55a61.88,61.88,0,0,0-27.55,1.37c-.05-3.11,0-6.15.09-9.07A62.56,62.56,0,0,1,303.93,154.94Z" transform="translate(-18.33 -26.83)"/><path class="cls-5" d="M303.71,146l.22,8.95a62.56,62.56,0,0,0-27.21,1.85c.15-3.68.4-7.18.76-10.39A61,61,0,0,1,303.71,146Z" transform="translate(-18.33 -26.83)"/><path class="cls-3" d="M333.08,83.66a2.7,2.7,0,1,1-2.54-3.2A2.9,2.9,0,0,1,333.08,83.66Z" transform="translate(-18.33 -26.83)"/><path class="cls-3" d="M349.91,84.43a2.7,2.7,0,1,1-2.54-3.2A2.9,2.9,0,0,1,349.91,84.43Z" transform="translate(-18.33 -26.83)"/><path class="cls-3" d="M331.44,74.51a15.38,15.38,0,0,0-5.35,1.17,1.42,1.42,0,0,0-.69.81,1.48,1.48,0,0,0,.1,1.09,1.42,1.42,0,0,0,.81.69,1.58,1.58,0,0,0,1.09-.09l.28-.11a13.84,13.84,0,0,1,3.23-.72l.4,0a1.58,1.58,0,0,0,1-.37,1.51,1.51,0,0,0,.46-1A1.43,1.43,0,0,0,331.44,74.51Z" transform="translate(-18.33 -26.83)"/><path class="cls-3" d="M345.36,75.14a15.19,15.19,0,0,1,5.22,1.66,1.41,1.41,0,0,1-.45,2.56,1.63,1.63,0,0,1-1.08-.19l-.27-.13a13.34,13.34,0,0,0-3.15-1l-.4-.06a1.46,1.46,0,0,1-1-.46,1.39,1.39,0,0,1-.37-1A1.43,1.43,0,0,1,345.36,75.14Z" transform="translate(-18.33 -26.83)"/><path class="cls-3" d="M317.51,93.88h0a.75.75,0,0,1-.74-.75,20,20,0,0,0-2.32-8.43.75.75,0,1,1,1.31-.73,21.25,21.25,0,0,1,2.51,9.17A.75.75,0,0,1,317.51,93.88Z" transform="translate(-18.33 -26.83)"/><path class="cls-3" d="M356.66,98h-.08a.76.76,0,0,1-.67-.83c.47-4.51,4.08-8.3,4.23-8.46a.75.75,0,0,1,1.08,1s-3.4,3.58-3.82,7.58A.75.75,0,0,1,356.66,98Z" transform="translate(-18.33 -26.83)"/><ellipse class="cls-11" cx="326.3" cy="92.72" rx="2.72" ry="4.1" transform="translate(190.03 383.95) rotate(-85.52)"/><path class="cls-11" d="M354,95.37c-.12,1.49-2,2.56-4.3,2.39s-4-1.54-3.87-3,2-2.57,4.29-2.39S354.12,93.87,354,95.37Z" transform="translate(-18.33 -26.83)"/><path class="cls-11" d="M339.86,84.63s-3,4.08-3,6.72a39.33,39.33,0,0,0,.73,6.26s5.16-1,5.29-2.56S339.86,84.63,339.86,84.63Z" transform="translate(-18.33 -26.83)"/><path class="cls-3" d="M337.26,98.09c-.25,0-.5,0-.75,0a.75.75,0,0,1,.09-1.49,10.35,10.35,0,0,0,5-1,1,1,0,0,0,.42-1.34,50.11,50.11,0,0,1-3.13-10.48.75.75,0,1,1,1.48-.27,48.93,48.93,0,0,0,3,10.17A2.48,2.48,0,0,1,342.3,97,11.72,11.72,0,0,1,337.26,98.09Z" transform="translate(-18.33 -26.83)"/><path class="cls-3" d="M335.91,104l-.17,0a7.27,7.27,0,0,1-5.25-5,.75.75,0,0,1,1.45-.42,5.81,5.81,0,0,0,4.13,3.93.75.75,0,0,1,.57.9A.76.76,0,0,1,335.91,104Z" transform="translate(-18.33 -26.83)"/><path class="cls-3" d="M359.24,69.22h-.1c-.86-.11-1.71-.26-2.67-.46-.46-.09-.93-.2-1.39-.31-1.25-.31-2.43-.64-3.68-1a57.39,57.39,0,0,0-11.52-2.3,56.81,56.81,0,0,0-11.68.33c-1.31.14-2.54.27-3.84.36-.52,0-1.06.07-1.61.08-1,0-1.86,0-2.71,0a.75.75,0,0,1,0-1.5h0c.82,0,1.67,0,2.61,0,.53,0,1,0,1.54-.08,1.29-.09,2.51-.22,3.81-.35a57.87,57.87,0,0,1,12-.34A59,59,0,0,1,351.8,66c1.24.34,2.41.67,3.63,1,.44.1.89.21,1.35.3.92.2,1.73.34,2.55.44a.75.75,0,0,1-.09,1.5Z" transform="translate(-18.33 -26.83)"/><path class="cls-3" d="M364.46,81.69a.77.77,0,0,1-.66-.38l-.51-.92c-2.48-4.5-4.83-8.75-23.79-11-19.78-2.36-25.34,6.07-25.39,6.15a.75.75,0,0,1-1,.24.76.76,0,0,1-.25-1c.24-.38,6-9.34,26.85-6.85,19.72,2.35,22.25,6.93,24.92,11.77l.51.91a.75.75,0,0,1-.28,1A.74.74,0,0,1,364.46,81.69Z" transform="translate(-18.33 -26.83)"/><path class="cls-3" d="M336.3,133.63a8.81,8.81,0,0,1-2.69-.4c-7.86-2.44-19.45-11.44-19.94-11.82a.75.75,0,0,1,.92-1.19c.12.1,11.86,9.22,19.46,11.58,7.28,2.26,16.68-7.85,16.77-8a.75.75,0,0,1,1.1,1C351.56,125.26,343.78,133.63,336.3,133.63Z" transform="translate(-18.33 -26.83)"/><path class="cls-3" d="M335.45,133.59a.76.76,0,0,1-.57-.27.75.75,0,0,1,.09-1.06c2.44-2,6.34-6,6.42-7.77a5.35,5.35,0,0,0-2.1-4,.75.75,0,0,1,.89-1.21c.12.09,2.85,2.13,2.71,5.3s-6.26,8.26-7,8.85A.74.74,0,0,1,335.45,133.59Z" transform="translate(-18.33 -26.83)"/><path class="cls-3" d="M276.15,455.6a.76.76,0,0,1-.72-.53.75.75,0,0,1,.5-.94c.88-.26,21.62-6.46,29.8.14a.75.75,0,0,1-.94,1.16c-7.56-6.1-28.21.08-28.42.14Z" transform="translate(-18.33 -26.83)"/><path class="cls-3" d="M362.66,442a.75.75,0,0,1-.26-1.46l6-2.16a.75.75,0,1,1,.5,1.41l-6,2.16A.74.74,0,0,1,362.66,442Z" transform="translate(-18.33 -26.83)"/><path class="cls-3" d="M370.24,455.6h0a.75.75,0,0,1-.73-.77c.18-6.21,10.19-7.85,10.61-7.91a.75.75,0,1,1,.23,1.48c-.09,0-9.2,1.5-9.34,6.47A.75.75,0,0,1,370.24,455.6Z" transform="translate(-18.33 -26.83)"/><path class="cls-3" d="M299.38,358.84c-7.12,0-10.86-2.83-11.06-3a.75.75,0,0,1-.13-1.05.74.74,0,0,1,1.05-.13c.07.05,5.59,4.14,15.91,2.05a.75.75,0,1,1,.29,1.47A30.73,30.73,0,0,1,299.38,358.84Z" transform="translate(-18.33 -26.83)"/><path class="cls-3" d="M357.7,363.11a53.85,53.85,0,0,1-8.41-.73.75.75,0,0,1,.26-1.48c3.6.65,13.6,1.67,16.71-1.3a.75.75,0,0,1,1,1.08C365.3,362.59,361.37,363.11,357.7,363.11Z" transform="translate(-18.33 -26.83)"/><path class="cls-3" d="M331.85,285.94h-.11a.75.75,0,0,1-.63-.85c.06-.46,6.5-45.85,3.6-67.47a.75.75,0,1,1,1.48-.2c2.93,21.82-3.53,67.43-3.6,67.88A.74.74,0,0,1,331.85,285.94Z" transform="translate(-18.33 -26.83)"/><path class="cls-3" d="M304.41,178a.75.75,0,0,1-.75-.74L303,146a.75.75,0,0,1,.73-.76h0a.75.75,0,0,1,.75.73l.7,31.25a.76.76,0,0,1-.74.77Z" transform="translate(-18.33 -26.83)"/><path class="cls-3" d="M304.41,157.54a.8.8,0,0,1-.3-.06.76.76,0,0,1-.4-1l4.59-10.8a.76.76,0,0,1,1.39.59l-4.59,10.8A.77.77,0,0,1,304.41,157.54Z" transform="translate(-18.33 -26.83)"/><path class="cls-3" d="M367.44,155a.74.74,0,0,1-.7-.49L360,136.71a.75.75,0,1,1,1.4-.53l6.72,17.75a.76.76,0,0,1-.44,1A.8.8,0,0,1,367.44,155Z" transform="translate(-18.33 -26.83)"/><path class="cls-1" d="M356.18,151.67a25,25,0,0,0-8.77-.9c-4.09.5-5.78,2.2-7,4s-1.59,5.71-1.59,5.71l-3.35,3s-2.29-3.36-7.78-3.49-12.2,3.49-12.2,3.49l.78-6.43s1.75-7.43-2.12-6.43-10.2,8.19-10.2,8.19-6.7,11-5.49,12.85,4.76,9.06,8.26,9.69,10.74,11.74,26.87,10.53,29.14-5.83,32.55-13.1,3.46-22.43,3.46-22.43Z" transform="translate(-18.33 -26.83)"/><path class="cls-1" d="M376.73,157.13a2.52,2.52,0,0,1-.4.56l-.14.15a1.84,1.84,0,0,1-.25.23,2.37,2.37,0,0,1-.34.29s0,0,0,0l-.45.32-.34.21a4.83,4.83,0,0,1-.45.26l-.38.21-.28.14a22.37,22.37,0,0,1-5.31,1.73l-.7.13-.71.11-.72.1-1.3.12c-.27,0-.54,0-.81,0h-1.18c-.41,0-.82,0-1.23-.05l-.2,0c-.51,0-1-.1-1.52-.19l-.09,0c-.26,0-.52-.09-.77-.15l-.78-.2-.77-.24c-.24-.08-.49-.17-.73-.27l-.09,0c-.47-.19-.94-.4-1.4-.63l-.18-.1-1.07-.59-.32-.2c-.22-.13-.43-.27-.64-.41l0,0c-.23-.14-.45-.3-.66-.45l-1.05-.78c-.18-.16-.37-.31-.56-.46l-.55-.47-.53-.48a22.75,22.75,0,0,1-3.62-4.26c-.06-.08-.11-.17-.17-.26l-.21-.38c-.09-.15-.17-.3-.25-.45s-.12-.24-.17-.36-.16-.36-.23-.54a4.28,4.28,0,0,1-.14-.43,2.34,2.34,0,0,1-.09-.33,1.77,1.77,0,0,1,0-.2,3.45,3.45,0,0,1-.06-.69c.16-3.33,5.73-13.21,5.73-13.21s.11-.52.29-1.3c0-.14.07-.29.11-.45s.11-.49.18-.75a38.15,38.15,0,0,1,1.42-4.68h0a2.71,2.71,0,0,1,.13-.3.3.3,0,0,1,0-.1,3,3,0,0,1,.17-.36h0c.06-.11.11-.22.17-.31l.05-.09a2.77,2.77,0,0,1,.21-.31h0a1,1,0,0,1,.24-.23h0c1.33-.82,7.66,6,7.66,6s2.95.6,5.05,1.2,4.92,1.62,4.92,1.62,9-2.5,9.67-1.09h0a.94.94,0,0,1,.08.32h0a1.45,1.45,0,0,1,0,.37v.1c0,.12,0,.24,0,.36h0a2.91,2.91,0,0,1-.05.4s0,.06,0,.1,0,.22-.05.33h0a37.49,37.49,0,0,1-1.23,4.73c-.08.26-.16.5-.24.74l-.15.44c-.25.76-.43,1.25-.43,1.25S378.33,154.21,376.73,157.13Z" transform="translate(-18.33 -26.83)"/><path class="cls-9" d="M370,155.3c1.53,2.61-3.65,6-3.65,6l0,.3c-.47.06-.94.11-1.42.13a19.41,19.41,0,0,1-6.58-.57,20.43,20.43,0,0,1-6.94-3.72s-2.65-5.6,0-7,6.35-3,6.85-3.39,2.53-8.66,6.21-7.62,1.19,8.8,1.41,9.42S368.43,152.69,370,155.3Zm-9-3.72c1.39.39,3.08-1.45,3.08-1.45-1.56-1.52-5-1.4-5-1.4S359.56,151.18,361,151.58Z" transform="translate(-18.33 -26.83)"/><path class="cls-3" d="M370.51,145.47a1.84,1.84,0,0,1,.92,2.39c-.31,1.08-1.21,1.78-2,1.54a1.83,1.83,0,0,1-.92-2.38C368.79,145.94,369.69,145.24,370.51,145.47Z" transform="translate(-18.33 -26.83)"/><path class="cls-3" d="M364,150.13s-1.69,1.84-3.08,1.45-1.88-2.85-1.88-2.85S362.48,148.61,364,150.13Z" transform="translate(-18.33 -26.83)"/><path class="cls-3" d="M355.69,141a1.84,1.84,0,0,1,.92,2.39c-.31,1.09-1.22,1.78-2,1.55a1.84,1.84,0,0,1-.93-2.38C354,141.43,354.87,140.73,355.69,141Z" transform="translate(-18.33 -26.83)"/><path class="cls-11" d="M357.05,132.86a12.47,12.47,0,0,0-5.3,1.63s1.72-7,2.5-6.89S357.05,132.86,357.05,132.86Z" transform="translate(-18.33 -26.83)"/><path class="cls-11" d="M374.29,137.73a12.36,12.36,0,0,1,3.67,4.16s2.21-6.88,1.47-7.17S374.29,137.73,374.29,137.73Z" transform="translate(-18.33 -26.83)"/><path class="cls-1" d="M368.37,237.69a10.11,10.11,0,0,1-9.72,3.29,10.6,10.6,0,0,1-7.55-6.83c-3.17-8.6.84-17.81.31-26.62-.3-5-1.75-9.69-5.08-13.46-2.54-2.86-6.72,1.34-4.19,4.19,2.78,3.15,3.46,7.56,3.39,11.63-.08,5.39-1.39,10.67-1.52,16.05-.23,9.06,3.83,19.13,13.75,20.9a16.13,16.13,0,0,0,14.8-5C375.13,239.07,371,234.87,368.37,237.69Z" transform="translate(-18.33 -26.83)"/><path class="cls-3" d="M361.48,172.9a9.43,9.43,0,0,1-6.28-2.75,22.37,22.37,0,0,1-3.59-4.73,9.9,9.9,0,0,1-3.2,2.74c-1.71.82-4.14.79-5.47-.88a4.48,4.48,0,0,1-.41-4.5,12,12,0,0,1,2.44-3.39c1.25-1.34,2.74-2.77,4.68-2.77h0a6.77,6.77,0,0,1,3.25,1.13l.19.11a34.14,34.14,0,0,0,11.39,3.9.75.75,0,1,1-.23,1.48,35.33,35.33,0,0,1-11.89-4.07l-.19-.11a5.59,5.59,0,0,0-2.53-.94h0c-1.34,0-2.5,1.13-3.58,2.29a10.88,10.88,0,0,0-2.16,2.94,3.05,3.05,0,0,0,.2,3,3.1,3.1,0,0,0,3.64.47,10.75,10.75,0,0,0,3.36-3.15.72.72,0,0,1,.63-.29.74.74,0,0,1,.59.36,24.55,24.55,0,0,0,3.9,5.32,7.72,7.72,0,0,0,5.56,2.34.78.78,0,0,1,.8.71.75.75,0,0,1-.71.79Z" transform="translate(-18.33 -26.83)"/><path class="cls-3" d="M341.43,162.74a4.26,4.26,0,0,1-.61,0,3,3,0,0,1-2.51-1.89.75.75,0,0,1,1.43-.47,1.56,1.56,0,0,0,1.29.87,6.09,6.09,0,0,0,2.17-.26.75.75,0,0,1,.35,1.46A8.87,8.87,0,0,1,341.43,162.74Z" transform="translate(-18.33 -26.83)"/><path class="cls-3" d="M348,158.28a.72.72,0,0,1-.4-.12.76.76,0,0,1-.23-1,3.74,3.74,0,0,0-1.56-5.41.75.75,0,0,1-.37-1,.76.76,0,0,1,1-.37,5.24,5.24,0,0,1,2.2,7.58A.76.76,0,0,1,348,158.28Z" transform="translate(-18.33 -26.83)"/><path class="cls-3" d="M341.36,176.87a.76.76,0,0,1-.69-.45,19.41,19.41,0,0,0-5.56-7.59,13.74,13.74,0,0,0-8.54-3.18h-.07c-4.31,0-8.3,2.36-12.15,4.62l-.71.42c-1.35.79-3.11,1.58-4.64.68a3.25,3.25,0,0,1-1.51-2.71,5.82,5.82,0,0,1,.68-2.75,21.75,21.75,0,0,1,3.59-4.83c.35-.38.7-.77,1-1.16,1.36-1.56,2.93-3.66,3.1-6a.74.74,0,0,1,.8-.7.75.75,0,0,1,.69.8c-.19,2.83-1.95,5.19-3.45,6.93l-1.05,1.18a20.19,20.19,0,0,0-3.36,4.48,4.26,4.26,0,0,0-.53,2,1.76,1.76,0,0,0,.77,1.48c.67.4,1.63.18,3.12-.69l.71-.41c4-2.36,8.19-4.8,12.91-4.83h.07a15.28,15.28,0,0,1,9.48,3.51,21,21,0,0,1,6,8.16.74.74,0,0,1-.39,1A.8.8,0,0,1,341.36,176.87Z" transform="translate(-18.33 -26.83)"/><path class="cls-3" d="M313.45,154.77h-.06a.75.75,0,0,1-.69-.81,1.54,1.54,0,0,0-1-1.5.75.75,0,1,1,.48-1.42,3,3,0,0,1,2,3A.75.75,0,0,1,313.45,154.77Z" transform="translate(-18.33 -26.83)"/><path class="cls-3" d="M310.76,156.63a.75.75,0,0,1-.72-.52,4.69,4.69,0,0,0-1.33-2.08.75.75,0,1,1,1-1.11,6.27,6.27,0,0,1,1.75,2.74.74.74,0,0,1-.49.94A.83.83,0,0,1,310.76,156.63Z" transform="translate(-18.33 -26.83)"/><path class="cls-7" d="M394.38,188.76c.13,6.55-.56,11.89-3.66,15.13-1.23,1.29-4.56,2.92-8.88,4.65C380.79,192.88,393.61,189,394.38,188.76Z" transform="translate(-18.33 -26.83)"/><path class="cls-8" d="M359.91,176.54c1.56-2,7.14-10.49,7.74-13.19s2.92-.94,3.17,1.33a2.65,2.65,0,0,1,0,.27c.08,2.41-1.32,6.6-1.32,6.6s11.29-4.43,12.75-4.07a2.61,2.61,0,0,1,1.86,2.69,6.16,6.16,0,0,1-.49,2.19,6.52,6.52,0,0,1,.93,2.42,8.44,8.44,0,0,1-1,2.69,11.81,11.81,0,0,1-.16,4.18,12.51,12.51,0,0,1-1.65,2.79s.5,3.24-3.51,5.36-8.49,2.86-12.2,3.44c-2.9.45-6.92,1.1-8.52,1.36-.48-4.57-1.53-11.48-3.79-15.27l.42-.27S358.35,178.54,359.91,176.54Z" transform="translate(-18.33 -26.83)"/><path class="cls-4" d="M357.54,194.6c.27,2.68.34,4.57.34,4.57l-4.37,1c-5-8.93-5.55-18.66-5.55-22.41l4.65.06a8.31,8.31,0,0,1,1.14,1.5C356,183.12,357.06,190,357.54,194.6Z" transform="translate(-18.33 -26.83)"/><path class="cls-4" d="M353.51,200.18l4.37-1s-.07-1.89-.34-4.57c1.6-.26,5.62-.91,8.52-1.36,3.71-.58,8.18-1.33,12.2-3.44s3.51-5.36,3.51-5.36a12.51,12.51,0,0,0,1.65-2.79,11.81,11.81,0,0,0,.16-4.18,8.44,8.44,0,0,0,1-2.69,6.52,6.52,0,0,0-.93-2.42,6.16,6.16,0,0,0,.49-2.19,2.61,2.61,0,0,0-1.86-2.69c-1.46-.36-12.75,4.07-12.75,4.07s1.4-4.19,1.32-6.6a2.65,2.65,0,0,0,0-.27c4.13-3.66,12.23-10.38,18.7-13a123.8,123.8,0,0,1,4.06,23.42c.31,4.9.74,9.52.8,13.67-.77.21-13.59,4.12-12.54,19.78-6.91,2.79-16.38,5.81-23.86,8.08-3.3-4.93-6.48-14.68-6.88-15.91Z" transform="translate(-18.33 -26.83)"/><path class="cls-5" d="M351.1,200.71c.4,1.23,3.58,11,6.88,15.91-2,.6-3.84,1.15-5.46,1.62-2-3.17-5.76-9.87-6-16.51l1.82-.4Z" transform="translate(-18.33 -26.83)"/><path class="cls-5" d="M351.1,200.71l-2.75.62c-5.68-10.08-5.65-21.21-5.58-23.62l5.19.06c0,3.75.53,13.48,5.55,22.41Z" transform="translate(-18.33 -26.83)"/><path class="cls-4" d="M346.53,201.73c.23,6.64,4,13.34,6,16.51-4,1.18-6.66,1.91-6.66,1.91a43.27,43.27,0,0,1-2.2-4c-1.75-3.55-3.77-8.81-3.16-13.13Z" transform="translate(-18.33 -26.83)"/><path class="cls-4" d="M342.77,177.71c-.07,2.41-.1,13.54,5.58,23.62l-1.82.4-6,1.3c-7.74,1.65-17.09,3.56-26,5.14-5.77,1-11.33,1.9-16.1,2.49-3.44-8.69-14-10.72-18.28-11.18-.61-3.43-.91-6.28-.91-6.28s-.29-1.56,4.59-6.44,20.57-9.52,20.57-9.52Z" transform="translate(-18.33 -26.83)"/><path class="cls-8" d="M340.5,203c-.61,4.32,1.41,9.58,3.16,13.13,0,0-17.06,1.8-20.38,1.9a4.55,4.55,0,0,1-4.39-2.85s-5.23-4.67-4.35-7C323.41,206.59,332.76,204.68,340.5,203Z" transform="translate(-18.33 -26.83)"/><path class="cls-7" d="M298.44,210.66c-7.58.92-13.18,1.07-14.5-.18-1.79-1.71-3-6.8-3.78-11C284.48,199.94,295,202,298.44,210.66Z" transform="translate(-18.33 -26.83)"/><path class="cls-3" d="M289.43,212.37c-3.19,0-5.54-.42-6.15-1.53a.76.76,0,0,1,.31-1,.74.74,0,0,1,1,.3c1,1.93,16.28.11,29.79-2.69l42.74-8.87c-.18-14.48-4-19.14-4.82-20l-34.65-.43c-15.28-.19-20.77,2.44-20.82,2.47a.75.75,0,1,1-.67-1.34c.23-.11,5.77-2.83,21.51-2.63l34.94.43a.71.71,0,0,1,.44.15c.22.17,5.48,4.31,5.57,21.93a.75.75,0,0,1-.6.74l-43.34,9C309.85,209.9,297.16,212.37,289.43,212.37Z" transform="translate(-18.33 -26.83)"/><path class="cls-3" d="M345.86,220.9a.78.78,0,0,1-.62-.32c-.24-.35-5.9-8.68-5.49-17.58a.75.75,0,1,1,1.5.07c-.33,7.25,3.77,14.34,4.93,16.19l34.23-10.95a.74.74,0,0,1,.94.48.75.75,0,0,1-.49,1l-34.77,11.13A.85.85,0,0,1,345.86,220.9Z" transform="translate(-18.33 -26.83)"/><path class="cls-3" d="M378,177.29a.75.75,0,0,1-.44-1.36l5.66-4.17a.75.75,0,0,1,1.05.16.76.76,0,0,1-.16,1.05l-5.66,4.17A.76.76,0,0,1,378,177.29Z" transform="translate(-18.33 -26.83)"/><path class="cls-3" d="M380.18,180.91a.75.75,0,0,1-.47-1.33l3.41-2.7a.75.75,0,0,1,.93,1.18l-3.41,2.69A.72.72,0,0,1,380.18,180.91Z" transform="translate(-18.33 -26.83)"/><path class="cls-3" d="M378.64,187.17a.74.74,0,0,1-.63-.34.76.76,0,0,1,.23-1l3.13-2a.75.75,0,0,1,.8,1.27l-3.13,2A.71.71,0,0,1,378.64,187.17Z" transform="translate(-18.33 -26.83)"/><path class="cls-3" d="M425.34,106.29a6.33,6.33,0,0,1-2.54,5.55c-.64.42-3.69.73-5.7,2.38s-2.93,4.56-3.47,5.1a6.32,6.32,0,0,1-5.94,1.38c-2.82-1-5.52-3-4.17-7.18s.86-4.82-.27-8.62a5,5,0,0,1,7.5-6.12c3.5,1.86,4,2.48,8.39,2S425,103.34,425.34,106.29Z" transform="translate(-18.33 -26.83)"/><path class="cls-3" d="M399,106.18c2.92,1.4,3.8,3.76,2.87,5.69s-3.32,2.73-6.24,1.32-4.54-4.11-3.61-6S396.12,104.77,399,106.18Z" transform="translate(-18.33 -26.83)"/><path class="cls-3" d="M399.19,94.17c3,2.14,3.54,5,2.12,6.94s-4.25,2.41-7.25.27-4.29-5.48-2.87-7.47S396.19,92,399.19,94.17Z" transform="translate(-18.33 -26.83)"/><path class="cls-3" d="M412.51,95.18c.8,3.14,2.93,4.47,5,3.95s3.33-2.71,2.54-5.85-3.12-5.27-5.2-4.75S411.72,92,412.51,95.18Z" transform="translate(-18.33 -26.83)"/><path class="cls-3" d="M400.72,92.92c1.49,3.37,4.14,4.46,6.37,3.47s3.22-3.68,1.72-7S404.3,84,402.07,85,399.23,89.55,400.72,92.92Z" transform="translate(-18.33 -26.83)"/><path class="cls-3" d="M456.35,103.8a5.3,5.3,0,0,1-5.08-.32c-.52-.38-1.67-2.66-3.55-3.73s-4.43-.92-5-1.18a5.28,5.28,0,0,1-2.84-4.22c-.1-2.48.64-5.18,4.34-5.39s4-.77,6.64-2.78a4.2,4.2,0,0,1,7,4c-.4,3.28-.74,3.83,1,7.13S458.54,102.63,456.35,103.8Z" transform="translate(-18.33 -26.83)"/><path class="cls-3" d="M448.59,83.28c-.22,2.69-1.8,4.08-3.58,3.94s-3.12-1.78-2.9-4.47S444,78,445.75,78.13,448.81,80.58,448.59,83.28Z" transform="translate(-18.33 -26.83)"/><path class="cls-3" d="M458,79.81c-.76,3-2.79,4.23-4.77,3.72S450.07,81,450.83,78s3-5,5-4.47S458.75,76.83,458,79.81Z" transform="translate(-18.33 -26.83)"/><path class="cls-3" d="M461.18,90.49c-2.21,1.55-2.62,3.61-1.59,5.08s3.11,1.79,5.32.23,3.17-4,2.14-5.47S463.39,88.93,461.18,90.49Z" transform="translate(-18.33 -26.83)"/><path class="cls-3" d="M459.41,80.63c-2.18,2.17-2.23,4.55-.79,6s3.82,1.4,6-.77,2.78-5.1,1.34-6.54S461.59,78.46,459.41,80.63Z" transform="translate(-18.33 -26.83)"/><path class="cls-3" d="M431.92,60.45a4.82,4.82,0,0,1-3.69,2.83c-.58,0-2.75-.82-4.69-.43s-3.6,2-4.16,2.2a4.83,4.83,0,0,1-4.5-1.19c-1.56-1.65-2.67-4-.25-6.33s2.3-2.94,2.9-5.91a3.85,3.85,0,0,1,7.24-1.45c1.69,2.51,1.79,3.09,5,4.34S432.73,58.33,431.92,60.45Z" transform="translate(-18.33 -26.83)"/><path class="cls-3" d="M414.23,51c1.47,2,1.23,3.89-.09,4.87s-3.21.65-4.68-1.34-1.59-4.4-.27-5.37S412.77,49,414.23,51Z" transform="translate(-18.33 -26.83)"/><path class="cls-3" d="M418.62,42.94c1.27,2.51.62,4.6-1,5.43s-3.73.11-5-2.4-.93-5.23.73-6.06S417.36,40.43,418.62,42.94Z" transform="translate(-18.33 -26.83)"/><path class="cls-3" d="M427.25,48.37c-.59,2.41.37,4.07,2,4.46s3.21-.64,3.8-3-.22-4.66-1.81-5.06S427.84,46,427.25,48.37Z" transform="translate(-18.33 -26.83)"/><path class="cls-3" d="M420.1,42.64c-.2,2.81,1.2,4.49,3.06,4.62s3.48-1.34,3.68-4.14-1.15-5.19-3-5.32S420.3,39.84,420.1,42.64Z" transform="translate(-18.33 -26.83)"/><path class="cls-7" d="M56,302.49c-2.07,2.37-3.89,5.17-4.33,8.25-3.63-2.76-4-8.26-2.61-12.62s4.23-8.28,5.81-12.65a24.59,24.59,0,0,0-1.48-19.84A19.33,19.33,0,0,1,63,294.45C61.07,297.42,58.34,299.8,56,302.49Z" transform="translate(-18.33 -26.83)"/><path class="cls-7" d="M117.61,366.83l.85.23c-2.26,3.92-6.1,6.6-9.12,9.95a29.11,29.11,0,0,0-6.23,27c-6.28-2.32-13.61-2.41-19.43.88a16.7,16.7,0,0,0-8.46,13.66c-7.26-2.42-12.49-9.31-14.72-16.68-2.33-7.73-1.9-16-1.21-24s1.65-16.19.28-24.16c-1.48-8.71-5.73-17-5.49-25.87.29-11,7.32-20.43,14-29.14,5.35-7,10.85-14.59,12.78-23,.4,4.57,2.58,9.19,4.78,13.35,3.2,6.09,6.63,12.93,4.76,19.57a17.56,17.56,0,0,0,11.34-13.91c3.84,4.24,4.23,10.54,3.68,16.23s-1.81,11.49-.55,17.06c1.13,4.91,4.11,9.17,7.09,13.23s6.07,8.22,7.45,13.07C120.58,358.47,120.2,363.4,117.61,366.83Z" transform="translate(-18.33 -26.83)"/><path class="cls-7" d="M92.11,284.33a16.46,16.46,0,0,1,3.17-11.79c-.81,4.9,3.71,9.22,3.93,14.18.13,3.28-1.59,6.23-3.65,8.87A33.9,33.9,0,0,1,92.11,284.33Z" transform="translate(-18.33 -26.83)"/><path class="cls-4" d="M93.16,368.57a36,36,0,0,0,1.76,24.72A22.91,22.91,0,0,1,79.71,377C78.39,381,77,385.2,77,389.51s1.36,8.84,4.7,11.54A16.06,16.06,0,0,1,68,393.91a15.44,15.44,0,0,1-2.08-5,.19.19,0,0,0,0-.07l-.09-.4c-1.16-5-.27-10.25,1-15.25s2.9-10.22,3-15.5c.32-10.73-5.47-20.89-5.4-31.62a29.68,29.68,0,0,1,9.82-21.68c-2.46,3.89-1.62,9.06.41,13.18s5.1,7.66,7.21,11.73,3.19,9.15,1,13.2a31,31,0,0,0,6.57-19.15c2.12,7,8.55,12.13,10.17,19.25,1,4.41,0,9-1.55,13.29S94.43,364.23,93.16,368.57Z" transform="translate(-18.33 -26.83)"/><path class="cls-7" d="M396.71,327a11.86,11.86,0,0,1,1.56-11.82,40.39,40.39,0,0,1,4.29-4.08,10.4,10.4,0,0,0,3.31-4.8c-.2,2.58-2.41,4.48-3.51,6.82-1.23,2.59-1,5.61-.51,8.42s1.29,5.63,1.14,8.48-1.4,5.79-3.92,7.05l0-.07a5.5,5.5,0,0,0,.18-5.19C398.53,330.12,397.43,328.64,396.71,327Z" transform="translate(-18.33 -26.83)"/><path class="cls-7" d="M432.27,399.71c1.68,6.21.15,13-3.06,18.56-3,5.27-7.44,9.6-12.15,13.46a11,11,0,0,0-8.38-10.84c-1.7-.35-3.71-.4-4.77-1.78s-.61-3.25-.75-4.95c-.29-3.59-3.25-6.35-6.21-8.42s-6.27-4-8-7.16c-1.33-2.5-1.46-5.44-1.41-8.26s.28-5.69-.42-8.43-2.53-5.38-5.26-6.13l-.2-.1a20.63,20.63,0,0,1,2-11.66c.74-1.45,1.64-2.81,2.34-4.28,1.44-3,2-6.42,3.65-9.32,2.22-3.87,6.12-6.41,9.65-9.13s7-6.13,7.7-10.54c1.53,2.79,6.08,2.29,8.06-.19s2.08-5.94,1.91-9.12c2.77,3,3.15,7.49,2.69,11.54s-1.64,8.05-1.45,12.12,1.78,8,3.38,11.79,3.28,7.63,3.7,11.72-.62,8.55-3.7,11.27a8,8,0,0,0,7.7-7.72c1.52,2,1.44,4.81.85,7.26s-1.58,4.84-1.68,7.36C428.37,391.28,431.08,395.34,432.27,399.71Z" transform="translate(-18.33 -26.83)"/><path class="cls-7" d="M434.75,357.91c-1.15,1.61-2.64,2.94-3.92,4.45a11.25,11.25,0,0,0-2.06,3.39,18.82,18.82,0,0,0-2.74-9.26c-.85-1.38-1.91-2.73-2-4.35-.13-2,1.19-3.69,2.08-5.45,1.48-3,1.8-6.35,2.72-9.53s2.74-6.46,5.86-7.57c-1.76,2.89-1.31,6.6-.3,9.82s2.55,6.35,2.82,9.71A13.36,13.36,0,0,1,434.75,357.91Z" transform="translate(-18.33 -26.83)"/><path class="cls-7" d="M424.94,334.15c-1-4.62-3.64-9-2.85-13.67.56-3.28,2.77-6,4.91-8.57-1.09,5.33,2.83,10.8,1.56,16.09A15.93,15.93,0,0,1,424.94,334.15Z" transform="translate(-18.33 -26.83)"/><path class="cls-4" d="M419.2,423.66a6.39,6.39,0,0,0-3.59-3.3c-1.85-.82-3.94-1.37-5.27-2.89-2.35-2.68-1.22-6.76-1.13-10.32.09-3.91-1.24-7.64-2.59-11.35-.44-1.2-.88-2.39-1.28-3.58-1.63-4.91-2.44-10.67.46-15-3.38,2.61-3.83,7.43-4.27,11.67s-1.67,9.16-5.6,10.81c2.2-4.66,1.08-10.15-.36-15.1s-3.19-10.09-2.12-15.13c1.17-5.52,5.46-9.74,9.33-13.84s7.72-9,7.62-14.62c.89,6.69-2.64,13.48-1.28,20.1,1.07,5.15,4.92,9.25,6.93,14.11a21.2,21.2,0,0,1-2.65,20.47,23.34,23.34,0,0,0,9.9-9.13,13.49,13.49,0,0,0-1.23,8.37c.37,3,1.28,5.88,1.7,8.86A28.61,28.61,0,0,1,419.2,423.66Z" transform="translate(-18.33 -26.83)"/></g></svg>