<svg id="Capa_1" data-name="Capa 1" xmlns="http://www.w3.org/2000/svg" viewBox="0 0 499.65 134.94"><defs><style>.cls-1{font-size:114.1px;font-family:ComicSansMS-Bold, Comic Sans MS;font-weight:700;}.cls-1,.cls-2{fill:#fff;}</style></defs><text class="cls-1" transform="translate(110.82 100.34)">AdoPet</text><path class="cls-2" d="M27.19,209.59a41.3,41.3,0,0,1-4-1.2,14.08,14.08,0,0,1-8.66-12.78A18.19,18.19,0,0,1,17.3,185.4a35.17,35.17,0,0,1,6.5-7.48,68.88,68.88,0,0,0,7.35-7.9c2.06-2.42,3.77-5.15,5.86-7.54,2.65-3,5.54-6,9.74-6.75,5.61-1,10.84-.16,15.14,3.91a37.76,37.76,0,0,1,4,4.69c1.88,2.52,3.45,5.28,5.48,7.66s4.42,4.42,6.65,6.61c.37.36.75.7,1.1,1.07,3.27,3.46,6.19,7.12,7.14,12,.79,4,.47,7.81-1.83,11.22a15.47,15.47,0,0,1-9.71,6.45c-.31.07-.61.18-.92.27H69.38c-4-.93-8-1.83-12-2.81a24.56,24.56,0,0,0-10-.7c-5.56.95-11,2.32-16.58,3.51Z" transform="translate(-0.09 -110.29)"/><path class="cls-2" d="M.09,154.1a5.44,5.44,0,0,0,.25-.78c1.35-8.13,10-10.87,16.49-6.18a19.47,19.47,0,0,1,5.57,6.76,13.71,13.71,0,0,1,1.32,10.55c-1.72,6.24-7.3,9.52-13.86,6.79a16,16,0,0,1-6.45-5.32A19.3,19.3,0,0,1,.09,158Z" transform="translate(-0.09 -110.29)"/><path class="cls-2" d="M54.84,139.33a19.28,19.28,0,0,1,2.1-9.52c2-3.64,4.56-6.8,8.66-8.39a10.29,10.29,0,0,1,11.47,2.5c3.47,3.59,4.12,8,3.6,12.62a21.87,21.87,0,0,1-2.28,7.64c-2.17,4.08-5.34,7.35-10.17,8.33A9.76,9.76,0,0,1,59,149.87C55.82,146.81,54.91,143,54.84,139.33Z" transform="translate(-0.09 -110.29)"/><path class="cls-2" d="M35.5,152.23a11.33,11.33,0,0,1-9-4.46c-4.24-5.15-6-11.09-4.25-17.74,1.45-5.63,6.2-9.5,11.42-9a11.31,11.31,0,0,1,5.08,1.66c6.07,4,8.24,10,7.93,17a14.66,14.66,0,0,1-2.12,7.26C42.43,150.23,39.53,152.22,35.5,152.23Z" transform="translate(-0.09 -110.29)"/><path class="cls-2" d="M87.9,145.85a6.68,6.68,0,0,0,.8-.2c7.74-3.19,14.71,2.77,14.15,10.89A19.8,19.8,0,0,1,100,165a13.92,13.92,0,0,1-8.4,6.79c-6.3,1.86-12.11-1.19-13.27-8.31a16.28,16.28,0,0,1,1.14-8.4,19.49,19.49,0,0,1,5.06-7.1Z" transform="translate(-0.09 -110.29)"/></svg>